solid OpenSCAD_Model
  facet normal 0 1 -0
    outer loop
      vertex 2 -13 -8.35
      vertex -2 -13 8.35
      vertex 2 -13 8.35
    endloop
  endfacet
  facet normal 0 1 0
    outer loop
      vertex -2 -13 8.35
      vertex 2 -13 -8.35
      vertex -2 -13 -8.35
    endloop
  endfacet
  facet normal 1 -0 0
    outer loop
      vertex -2 11.8162 8.35
      vertex -2 13 -8.35
      vertex -2 13 8.35
    endloop
  endfacet
  facet normal 1 0 0
    outer loop
      vertex -2 13 -8.35
      vertex -2 11.8162 8.35
      vertex -2 11.8162 -8.35
    endloop
  endfacet
  facet normal 1 -0 0
    outer loop
      vertex -2 -13 8.35
      vertex -2 -11.8162 -8.35
      vertex -2 -11.8162 8.35
    endloop
  endfacet
  facet normal 1 0 0
    outer loop
      vertex -2 -11.8162 -8.35
      vertex -2 -13 8.35
      vertex -2 -13 -8.35
    endloop
  endfacet
  facet normal -1 0 0
    outer loop
      vertex 2 11.8162 -8.35
      vertex 2 13 8.35
      vertex 2 13 -8.35
    endloop
  endfacet
  facet normal -1 -0 0
    outer loop
      vertex 2 13 8.35
      vertex 2 11.8162 -8.35
      vertex 2 11.8162 8.35
    endloop
  endfacet
  facet normal -1 0 0
    outer loop
      vertex 2 -13 -8.35
      vertex 2 -11.8162 8.35
      vertex 2 -11.8162 -8.35
    endloop
  endfacet
  facet normal -1 -0 0
    outer loop
      vertex 2 -11.8162 8.35
      vertex 2 -13 -8.35
      vertex 2 -13 8.35
    endloop
  endfacet
  facet normal 0 -1 0
    outer loop
      vertex -2 13 -8.35
      vertex -1.5 13 8.35
      vertex -2 13 8.35
    endloop
  endfacet
  facet normal 0 -1 -0
    outer loop
      vertex -1.5 13 8.35
      vertex -2 13 -8.35
      vertex -1.5 13 -8.35
    endloop
  endfacet
  facet normal 0 -1 0
    outer loop
      vertex 1.5 13 -8.35
      vertex 2 13 8.35
      vertex 1.5 13 8.35
    endloop
  endfacet
  facet normal 0 -1 -0
    outer loop
      vertex 2 13 8.35
      vertex 1.5 13 -8.35
      vertex 2 13 -8.35
    endloop
  endfacet
  facet normal -0.587786 0.809016 0
    outer loop
      vertex 9.25924 -9.34165 -8.35
      vertex 6.02317 -11.6928 8.35
      vertex 9.25924 -9.34165 8.35
    endloop
  endfacet
  facet normal -0.587786 0.809016 0
    outer loop
      vertex 6.02317 -11.6928 8.35
      vertex 9.25924 -9.34165 -8.35
      vertex 6.02317 -11.6928 -8.35
    endloop
  endfacet
  facet normal -0.809034 -0.587762 0
    outer loop
      vertex -5.32733 10.735 -8.35
      vertex -6.02317 11.6928 8.35
      vertex -6.02317 11.6928 -8.35
    endloop
  endfacet
  facet normal -0.809034 -0.587762 0
    outer loop
      vertex -6.02317 11.6928 8.35
      vertex -5.32733 10.735 -8.35
      vertex -5.32733 10.735 8.35
    endloop
  endfacet
  facet normal -0.809019 -0.587782 0
    outer loop
      vertex 9.25924 -9.34165 -8.35
      vertex 8.5634 -8.3839 8.35
      vertex 8.5634 -8.3839 -8.35
    endloop
  endfacet
  facet normal -0.809019 -0.587782 0
    outer loop
      vertex 8.5634 -8.3839 8.35
      vertex 9.25924 -9.34165 -8.35
      vertex 9.25924 -9.34165 8.35
    endloop
  endfacet
  facet normal 0.809019 0.587782 0
    outer loop
      vertex -8.5634 8.3839 8.35
      vertex -9.25924 9.34165 -8.35
      vertex -9.25924 9.34165 8.35
    endloop
  endfacet
  facet normal 0.809019 0.587782 0
    outer loop
      vertex -9.25924 9.34165 -8.35
      vertex -8.5634 8.3839 8.35
      vertex -8.5634 8.3839 -8.35
    endloop
  endfacet
  facet normal 0.809034 0.587762 0
    outer loop
      vertex 6.02317 -11.6928 8.35
      vertex 5.32733 -10.735 -8.35
      vertex 5.32733 -10.735 8.35
    endloop
  endfacet
  facet normal 0.809034 0.587762 0
    outer loop
      vertex 5.32733 -10.735 -8.35
      vertex 6.02317 -11.6928 8.35
      vertex 6.02317 -11.6928 -8.35
    endloop
  endfacet
  facet normal 0.587786 -0.809016 0
    outer loop
      vertex -9.25924 9.34165 -8.35
      vertex -6.02317 11.6928 8.35
      vertex -9.25924 9.34165 8.35
    endloop
  endfacet
  facet normal 0.587786 -0.809016 0
    outer loop
      vertex -6.02317 11.6928 8.35
      vertex -9.25924 9.34165 -8.35
      vertex -6.02317 11.6928 -8.35
    endloop
  endfacet
  facet normal 0.951054 -0.309025 0
    outer loop
      vertex -12.9818 2.11511 8.35
      vertex -11.7457 5.91933 -8.35
      vertex -11.7457 5.91933 8.35
    endloop
  endfacet
  facet normal 0.951054 -0.309025 0
    outer loop
      vertex -11.7457 5.91933 -8.35
      vertex -12.9818 2.11511 8.35
      vertex -12.9818 2.11511 -8.35
    endloop
  endfacet
  facet normal -0.951054 0.309025 0
    outer loop
      vertex 11.7457 -5.91933 -8.35
      vertex 12.9818 -2.11511 8.35
      vertex 12.9818 -2.11511 -8.35
    endloop
  endfacet
  facet normal -0.951054 0.309025 0
    outer loop
      vertex 12.9818 -2.11511 8.35
      vertex 11.7457 -5.91933 -8.35
      vertex 11.7457 -5.91933 8.35
    endloop
  endfacet
  facet normal -0.309012 -0.951058 0
    outer loop
      vertex -11.7457 5.91933 -8.35
      vertex -10.6198 5.55351 8.35
      vertex -11.7457 5.91933 8.35
    endloop
  endfacet
  facet normal -0.309012 -0.951058 -0
    outer loop
      vertex -10.6198 5.55351 8.35
      vertex -11.7457 5.91933 -8.35
      vertex -10.6198 5.55351 -8.35
    endloop
  endfacet
  facet normal -0.309019 -0.951056 0
    outer loop
      vertex 11.8559 -1.74928 -8.35
      vertex 12.9818 -2.11511 8.35
      vertex 11.8559 -1.74928 8.35
    endloop
  endfacet
  facet normal -0.309019 -0.951056 -0
    outer loop
      vertex 12.9818 -2.11511 8.35
      vertex 11.8559 -1.74928 -8.35
      vertex 12.9818 -2.11511 -8.35
    endloop
  endfacet
  facet normal 0.309019 0.951056 -0
    outer loop
      vertex -11.8559 1.74928 -8.35
      vertex -12.9818 2.11511 8.35
      vertex -11.8559 1.74928 8.35
    endloop
  endfacet
  facet normal 0.309019 0.951056 0
    outer loop
      vertex -12.9818 2.11511 8.35
      vertex -11.8559 1.74928 -8.35
      vertex -12.9818 2.11511 -8.35
    endloop
  endfacet
  facet normal 0.309012 0.951058 -0
    outer loop
      vertex 11.7457 -5.91933 -8.35
      vertex 10.6198 -5.55351 8.35
      vertex 11.7457 -5.91933 8.35
    endloop
  endfacet
  facet normal 0.309012 0.951058 0
    outer loop
      vertex 10.6198 -5.55351 8.35
      vertex 11.7457 -5.91933 -8.35
      vertex 10.6198 -5.55351 -8.35
    endloop
  endfacet
  facet normal 0.951054 0.309025 0
    outer loop
      vertex -11.7457 -5.91933 8.35
      vertex -12.9818 -2.11511 -8.35
      vertex -12.9818 -2.11511 8.35
    endloop
  endfacet
  facet normal 0.951054 0.309025 0
    outer loop
      vertex -12.9818 -2.11511 -8.35
      vertex -11.7457 -5.91933 8.35
      vertex -11.7457 -5.91933 -8.35
    endloop
  endfacet
  facet normal -0.951054 -0.309025 0
    outer loop
      vertex 12.9818 2.11511 -8.35
      vertex 11.7457 5.91933 8.35
      vertex 11.7457 5.91933 -8.35
    endloop
  endfacet
  facet normal -0.951054 -0.309025 0
    outer loop
      vertex 11.7457 5.91933 8.35
      vertex 12.9818 2.11511 -8.35
      vertex 12.9818 2.11511 8.35
    endloop
  endfacet
  facet normal 0.309019 -0.951056 0
    outer loop
      vertex -12.9818 -2.11511 -8.35
      vertex -11.8559 -1.74928 8.35
      vertex -12.9818 -2.11511 8.35
    endloop
  endfacet
  facet normal 0.309019 -0.951056 0
    outer loop
      vertex -11.8559 -1.74928 8.35
      vertex -12.9818 -2.11511 -8.35
      vertex -11.8559 -1.74928 -8.35
    endloop
  endfacet
  facet normal 0.309012 -0.951058 0
    outer loop
      vertex 10.6198 5.55351 -8.35
      vertex 11.7457 5.91933 8.35
      vertex 10.6198 5.55351 8.35
    endloop
  endfacet
  facet normal 0.309012 -0.951058 0
    outer loop
      vertex 11.7457 5.91933 8.35
      vertex 10.6198 5.55351 -8.35
      vertex 11.7457 5.91933 -8.35
    endloop
  endfacet
  facet normal -0.309012 0.951058 0
    outer loop
      vertex -10.6198 -5.55351 -8.35
      vertex -11.7457 -5.91933 8.35
      vertex -10.6198 -5.55351 8.35
    endloop
  endfacet
  facet normal -0.309012 0.951058 0
    outer loop
      vertex -11.7457 -5.91933 8.35
      vertex -10.6198 -5.55351 -8.35
      vertex -11.7457 -5.91933 -8.35
    endloop
  endfacet
  facet normal -0.309019 0.951056 0
    outer loop
      vertex 12.9818 2.11511 -8.35
      vertex 11.8559 1.74928 8.35
      vertex 12.9818 2.11511 8.35
    endloop
  endfacet
  facet normal -0.309019 0.951056 0
    outer loop
      vertex 11.8559 1.74928 8.35
      vertex 12.9818 2.11511 -8.35
      vertex 11.8559 1.74928 -8.35
    endloop
  endfacet
  facet normal 0.587786 0.809016 -0
    outer loop
      vertex -6.02317 -11.6928 -8.35
      vertex -9.25924 -9.34165 8.35
      vertex -6.02317 -11.6928 8.35
    endloop
  endfacet
  facet normal 0.587786 0.809016 0
    outer loop
      vertex -9.25924 -9.34165 8.35
      vertex -6.02317 -11.6928 -8.35
      vertex -9.25924 -9.34165 -8.35
    endloop
  endfacet
  facet normal -0.587786 -0.809016 0
    outer loop
      vertex 6.02317 11.6928 -8.35
      vertex 9.25924 9.34165 8.35
      vertex 6.02317 11.6928 8.35
    endloop
  endfacet
  facet normal -0.587786 -0.809016 -0
    outer loop
      vertex 9.25924 9.34165 8.35
      vertex 6.02317 11.6928 -8.35
      vertex 9.25924 9.34165 -8.35
    endloop
  endfacet
  facet normal 0.809019 -0.587782 0
    outer loop
      vertex -9.25924 -9.34165 8.35
      vertex -8.5634 -8.3839 -8.35
      vertex -8.5634 -8.3839 8.35
    endloop
  endfacet
  facet normal 0.809019 -0.587782 0
    outer loop
      vertex -8.5634 -8.3839 -8.35
      vertex -9.25924 -9.34165 8.35
      vertex -9.25924 -9.34165 -8.35
    endloop
  endfacet
  facet normal 0.809034 -0.587762 0
    outer loop
      vertex 5.32733 10.735 8.35
      vertex 6.02317 11.6928 -8.35
      vertex 6.02317 11.6928 8.35
    endloop
  endfacet
  facet normal 0.809034 -0.587762 0
    outer loop
      vertex 6.02317 11.6928 -8.35
      vertex 5.32733 10.735 8.35
      vertex 5.32733 10.735 -8.35
    endloop
  endfacet
  facet normal -0.809034 0.587762 0
    outer loop
      vertex -6.02317 -11.6928 -8.35
      vertex -5.32733 -10.735 8.35
      vertex -5.32733 -10.735 -8.35
    endloop
  endfacet
  facet normal -0.809034 0.587762 0
    outer loop
      vertex -5.32733 -10.735 8.35
      vertex -6.02317 -11.6928 -8.35
      vertex -6.02317 -11.6928 8.35
    endloop
  endfacet
  facet normal -0.809019 0.587782 0
    outer loop
      vertex 8.5634 8.3839 -8.35
      vertex 9.25924 9.34165 8.35
      vertex 9.25924 9.34165 -8.35
    endloop
  endfacet
  facet normal -0.809019 0.587782 0
    outer loop
      vertex 9.25924 9.34165 8.35
      vertex 8.5634 8.3839 -8.35
      vertex 8.5634 8.3839 8.35
    endloop
  endfacet
  facet normal 0 -0.453979 -0.891013
    outer loop
      vertex 1.5 17.3852 3.18604
      vertex 16.495 18.3191 2.71021
      vertex 16.495 17.3852 3.18604
    endloop
  endfacet
  facet normal -0 -0.453979 -0.891013
    outer loop
      vertex 16.495 18.3191 2.71021
      vertex 1.5 17.3852 3.18604
      vertex 1.5 18.3191 2.71021
    endloop
  endfacet
  facet normal 0 -0.453979 -0.891013
    outer loop
      vertex -20.5 17.3852 3.18604
      vertex -1.5 18.3191 2.71021
      vertex -1.5 17.3852 3.18604
    endloop
  endfacet
  facet normal -0 -0.453979 -0.891013
    outer loop
      vertex -1.5 18.3191 2.71021
      vertex -20.5 17.3852 3.18604
      vertex -20.5 18.3191 2.71021
    endloop
  endfacet
  facet normal 0 0.891018 0.453967
    outer loop
      vertex 16.495 13.6398 -1.96908
      vertex 1.5 13.164 -1.03521
      vertex 16.495 13.164 -1.03521
    endloop
  endfacet
  facet normal 0 0.891018 0.453967
    outer loop
      vertex 1.5 13.164 -1.03521
      vertex 16.495 13.6398 -1.96908
      vertex 1.5 13.6398 -1.96908
    endloop
  endfacet
  facet normal 0 0.891018 0.453967
    outer loop
      vertex -1.5 13.6398 -1.96908
      vertex -20.5 13.164 -1.03521
      vertex -1.5 13.164 -1.03521
    endloop
  endfacet
  facet normal 0 0.891018 0.453967
    outer loop
      vertex -20.5 13.164 -1.03521
      vertex -1.5 13.6398 -1.96908
      vertex -20.5 13.6398 -1.96908
    endloop
  endfacet
  facet normal 0 -0.707121 -0.707092
    outer loop
      vertex 1.5 19.0602 1.96908
      vertex 16.495 18.3191 2.71021
      vertex 1.5 18.3191 2.71021
    endloop
  endfacet
  facet normal 0 -0.707121 -0.707092
    outer loop
      vertex 16.495 18.3191 2.71021
      vertex 1.5 19.0602 1.96908
      vertex 16.495 19.0602 1.96908
    endloop
  endfacet
  facet normal 0 -0.707121 -0.707092
    outer loop
      vertex -20.5 19.0602 1.96908
      vertex -1.5 18.3191 2.71021
      vertex -20.5 18.3191 2.71021
    endloop
  endfacet
  facet normal 0 -0.707121 -0.707092
    outer loop
      vertex -1.5 18.3191 2.71021
      vertex -20.5 19.0602 1.96908
      vertex -1.5 19.0602 1.96908
    endloop
  endfacet
  facet normal 0 -0.156435 0.987688
    outer loop
      vertex 1.5 17.3852 -3.18604
      vertex 16.495 16.35 -3.35
      vertex 16.495 17.3852 -3.18604
    endloop
  endfacet
  facet normal 0 -0.156435 0.987688
    outer loop
      vertex 16.495 16.35 -3.35
      vertex 1.5 17.3852 -3.18604
      vertex 1.5 16.35 -3.35
    endloop
  endfacet
  facet normal 0 -0.156435 0.987688
    outer loop
      vertex -20.5 17.3852 -3.18604
      vertex -1.5 16.35 -3.35
      vertex -1.5 17.3852 -3.18604
    endloop
  endfacet
  facet normal 0 -0.156435 0.987688
    outer loop
      vertex -1.5 16.35 -3.35
      vertex -20.5 17.3852 -3.18604
      vertex -20.5 16.35 -3.35
    endloop
  endfacet
  facet normal 0 0.156435 -0.987688
    outer loop
      vertex 1.5 15.3148 3.18604
      vertex 16.495 16.35 3.35
      vertex 16.495 15.3148 3.18604
    endloop
  endfacet
  facet normal 0 0.156435 -0.987688
    outer loop
      vertex 16.495 16.35 3.35
      vertex 1.5 15.3148 3.18604
      vertex 1.5 16.35 3.35
    endloop
  endfacet
  facet normal 0 0.156435 -0.987688
    outer loop
      vertex -20.5 15.3148 3.18604
      vertex -1.5 16.35 3.35
      vertex -1.5 15.3148 3.18604
    endloop
  endfacet
  facet normal 0 0.156435 -0.987688
    outer loop
      vertex -1.5 16.35 3.35
      vertex -20.5 15.3148 3.18604
      vertex -20.5 16.35 3.35
    endloop
  endfacet
  facet normal 0 0.707121 0.707092
    outer loop
      vertex 16.495 14.3809 -2.71021
      vertex 1.5 13.6398 -1.96908
      vertex 16.495 13.6398 -1.96908
    endloop
  endfacet
  facet normal 0 0.707121 0.707092
    outer loop
      vertex 1.5 13.6398 -1.96908
      vertex 16.495 14.3809 -2.71021
      vertex 1.5 14.3809 -2.71021
    endloop
  endfacet
  facet normal 0 0.707121 0.707092
    outer loop
      vertex -1.5 14.3809 -2.71021
      vertex -20.5 13.6398 -1.96908
      vertex -1.5 13.6398 -1.96908
    endloop
  endfacet
  facet normal 0 0.707121 0.707092
    outer loop
      vertex -20.5 13.6398 -1.96908
      vertex -1.5 14.3809 -2.71021
      vertex -20.5 14.3809 -2.71021
    endloop
  endfacet
  facet normal -0 0.156435 0.987688
    outer loop
      vertex 1.5 16.35 -3.35
      vertex 16.495 15.3148 -3.18604
      vertex 16.495 16.35 -3.35
    endloop
  endfacet
  facet normal 0 0.156435 0.987688
    outer loop
      vertex 16.495 15.3148 -3.18604
      vertex 1.5 16.35 -3.35
      vertex 1.5 15.3148 -3.18604
    endloop
  endfacet
  facet normal -0 0.156435 0.987688
    outer loop
      vertex -20.5 16.35 -3.35
      vertex -1.5 15.3148 -3.18604
      vertex -1.5 16.35 -3.35
    endloop
  endfacet
  facet normal 0 0.156435 0.987688
    outer loop
      vertex -1.5 15.3148 -3.18604
      vertex -20.5 16.35 -3.35
      vertex -20.5 15.3148 -3.18604
    endloop
  endfacet
  facet normal 0 0.987683 0.156471
    outer loop
      vertex 16.495 13.164 -1.03521
      vertex 1.5 13 0
      vertex 16.495 13 0
    endloop
  endfacet
  facet normal 0 0.987683 0.156471
    outer loop
      vertex 1.5 13 0
      vertex 16.495 13.164 -1.03521
      vertex 1.5 13.164 -1.03521
    endloop
  endfacet
  facet normal 0 0.987683 0.156471
    outer loop
      vertex -1.5 13.164 -1.03521
      vertex -20.5 13 0
      vertex -1.5 13 0
    endloop
  endfacet
  facet normal 0 0.987683 0.156471
    outer loop
      vertex -20.5 13 0
      vertex -1.5 13.164 -1.03521
      vertex -20.5 13.164 -1.03521
    endloop
  endfacet
  facet normal 0 -0.987683 -0.156471
    outer loop
      vertex 1.5 19.7 0
      vertex 16.495 19.536 1.03521
      vertex 1.5 19.536 1.03521
    endloop
  endfacet
  facet normal 0 -0.987683 -0.156471
    outer loop
      vertex 16.495 19.536 1.03521
      vertex 1.5 19.7 0
      vertex 16.495 19.7 0
    endloop
  endfacet
  facet normal 0 -0.987683 -0.156471
    outer loop
      vertex -20.5 19.7 0
      vertex -1.5 19.536 1.03521
      vertex -20.5 19.536 1.03521
    endloop
  endfacet
  facet normal 0 -0.987683 -0.156471
    outer loop
      vertex -1.5 19.536 1.03521
      vertex -20.5 19.7 0
      vertex -1.5 19.7 0
    endloop
  endfacet
  facet normal 0 -0.156435 -0.987688
    outer loop
      vertex 1.5 16.35 3.35
      vertex 16.495 17.3852 3.18604
      vertex 16.495 16.35 3.35
    endloop
  endfacet
  facet normal -0 -0.156435 -0.987688
    outer loop
      vertex 16.495 17.3852 3.18604
      vertex 1.5 16.35 3.35
      vertex 1.5 17.3852 3.18604
    endloop
  endfacet
  facet normal 0 -0.156435 -0.987688
    outer loop
      vertex -20.5 16.35 3.35
      vertex -1.5 17.3852 3.18604
      vertex -1.5 16.35 3.35
    endloop
  endfacet
  facet normal -0 -0.156435 -0.987688
    outer loop
      vertex -1.5 17.3852 3.18604
      vertex -20.5 16.35 3.35
      vertex -20.5 17.3852 3.18604
    endloop
  endfacet
  facet normal 0 0.707121 -0.707092
    outer loop
      vertex 16.495 13.6398 1.96908
      vertex 1.5 14.3809 2.71021
      vertex 16.495 14.3809 2.71021
    endloop
  endfacet
  facet normal 0 0.707121 -0.707092
    outer loop
      vertex 1.5 14.3809 2.71021
      vertex 16.495 13.6398 1.96908
      vertex 1.5 13.6398 1.96908
    endloop
  endfacet
  facet normal 0 0.707121 -0.707092
    outer loop
      vertex -1.5 13.6398 1.96908
      vertex -20.5 14.3809 2.71021
      vertex -1.5 14.3809 2.71021
    endloop
  endfacet
  facet normal 0 0.707121 -0.707092
    outer loop
      vertex -20.5 14.3809 2.71021
      vertex -1.5 13.6398 1.96908
      vertex -20.5 13.6398 1.96908
    endloop
  endfacet
  facet normal 0 -0.891018 -0.453967
    outer loop
      vertex 1.5 19.536 1.03521
      vertex 16.495 19.0602 1.96908
      vertex 1.5 19.0602 1.96908
    endloop
  endfacet
  facet normal 0 -0.891018 -0.453967
    outer loop
      vertex 16.495 19.0602 1.96908
      vertex 1.5 19.536 1.03521
      vertex 16.495 19.536 1.03521
    endloop
  endfacet
  facet normal 0 -0.891018 -0.453967
    outer loop
      vertex -20.5 19.536 1.03521
      vertex -1.5 19.0602 1.96908
      vertex -20.5 19.0602 1.96908
    endloop
  endfacet
  facet normal 0 -0.891018 -0.453967
    outer loop
      vertex -1.5 19.0602 1.96908
      vertex -20.5 19.536 1.03521
      vertex -1.5 19.536 1.03521
    endloop
  endfacet
  facet normal 0 0.987683 -0.156471
    outer loop
      vertex 16.495 13 0
      vertex 1.5 13.164 1.03521
      vertex 16.495 13.164 1.03521
    endloop
  endfacet
  facet normal 0 0.987683 -0.156471
    outer loop
      vertex 1.5 13.164 1.03521
      vertex 16.495 13 0
      vertex 1.5 13 0
    endloop
  endfacet
  facet normal 0 0.987683 -0.156471
    outer loop
      vertex -1.5 13 0
      vertex -20.5 13.164 1.03521
      vertex -1.5 13.164 1.03521
    endloop
  endfacet
  facet normal 0 0.987683 -0.156471
    outer loop
      vertex -20.5 13.164 1.03521
      vertex -1.5 13 0
      vertex -20.5 13 0
    endloop
  endfacet
  facet normal 0 -0.453979 0.891013
    outer loop
      vertex 1.5 18.3191 -2.71021
      vertex 16.495 17.3852 -3.18604
      vertex 16.495 18.3191 -2.71021
    endloop
  endfacet
  facet normal 0 -0.453979 0.891013
    outer loop
      vertex 16.495 17.3852 -3.18604
      vertex 1.5 18.3191 -2.71021
      vertex 1.5 17.3852 -3.18604
    endloop
  endfacet
  facet normal 0 -0.453979 0.891013
    outer loop
      vertex -20.5 18.3191 -2.71021
      vertex -1.5 17.3852 -3.18604
      vertex -1.5 18.3191 -2.71021
    endloop
  endfacet
  facet normal 0 -0.453979 0.891013
    outer loop
      vertex -1.5 17.3852 -3.18604
      vertex -20.5 18.3191 -2.71021
      vertex -20.5 17.3852 -3.18604
    endloop
  endfacet
  facet normal 0 -0.987683 0.156471
    outer loop
      vertex 1.5 19.536 -1.03521
      vertex 16.495 19.7 0
      vertex 1.5 19.7 0
    endloop
  endfacet
  facet normal 0 -0.987683 0.156471
    outer loop
      vertex 16.495 19.7 0
      vertex 1.5 19.536 -1.03521
      vertex 16.495 19.536 -1.03521
    endloop
  endfacet
  facet normal 0 -0.987683 0.156471
    outer loop
      vertex -20.5 19.536 -1.03521
      vertex -1.5 19.7 0
      vertex -20.5 19.7 0
    endloop
  endfacet
  facet normal 0 -0.987683 0.156471
    outer loop
      vertex -1.5 19.7 0
      vertex -20.5 19.536 -1.03521
      vertex -1.5 19.536 -1.03521
    endloop
  endfacet
  facet normal -0 0.453979 0.891013
    outer loop
      vertex 1.5 15.3148 -3.18604
      vertex 16.495 14.3809 -2.71021
      vertex 16.495 15.3148 -3.18604
    endloop
  endfacet
  facet normal 0 0.453979 0.891013
    outer loop
      vertex 16.495 14.3809 -2.71021
      vertex 1.5 15.3148 -3.18604
      vertex 1.5 14.3809 -2.71021
    endloop
  endfacet
  facet normal -0 0.453979 0.891013
    outer loop
      vertex -20.5 15.3148 -3.18604
      vertex -1.5 14.3809 -2.71021
      vertex -1.5 15.3148 -3.18604
    endloop
  endfacet
  facet normal 0 0.453979 0.891013
    outer loop
      vertex -1.5 14.3809 -2.71021
      vertex -20.5 15.3148 -3.18604
      vertex -20.5 14.3809 -2.71021
    endloop
  endfacet
  facet normal 0 0.891018 -0.453967
    outer loop
      vertex 16.495 13.164 1.03521
      vertex 1.5 13.6398 1.96908
      vertex 16.495 13.6398 1.96908
    endloop
  endfacet
  facet normal 0 0.891018 -0.453967
    outer loop
      vertex 1.5 13.6398 1.96908
      vertex 16.495 13.164 1.03521
      vertex 1.5 13.164 1.03521
    endloop
  endfacet
  facet normal 0 0.891018 -0.453967
    outer loop
      vertex -1.5 13.164 1.03521
      vertex -20.5 13.6398 1.96908
      vertex -1.5 13.6398 1.96908
    endloop
  endfacet
  facet normal 0 0.891018 -0.453967
    outer loop
      vertex -20.5 13.6398 1.96908
      vertex -1.5 13.164 1.03521
      vertex -20.5 13.164 1.03521
    endloop
  endfacet
  facet normal 0 -0.891018 0.453967
    outer loop
      vertex 1.5 19.0602 -1.96908
      vertex 16.495 19.536 -1.03521
      vertex 1.5 19.536 -1.03521
    endloop
  endfacet
  facet normal 0 -0.891018 0.453967
    outer loop
      vertex 16.495 19.536 -1.03521
      vertex 1.5 19.0602 -1.96908
      vertex 16.495 19.0602 -1.96908
    endloop
  endfacet
  facet normal 0 -0.891018 0.453967
    outer loop
      vertex -20.5 19.0602 -1.96908
      vertex -1.5 19.536 -1.03521
      vertex -20.5 19.536 -1.03521
    endloop
  endfacet
  facet normal 0 -0.891018 0.453967
    outer loop
      vertex -1.5 19.536 -1.03521
      vertex -20.5 19.0602 -1.96908
      vertex -1.5 19.0602 -1.96908
    endloop
  endfacet
  facet normal 0 -0.707121 0.707092
    outer loop
      vertex 1.5 18.3191 -2.71021
      vertex 16.495 19.0602 -1.96908
      vertex 1.5 19.0602 -1.96908
    endloop
  endfacet
  facet normal 0 -0.707121 0.707092
    outer loop
      vertex 16.495 19.0602 -1.96908
      vertex 1.5 18.3191 -2.71021
      vertex 16.495 18.3191 -2.71021
    endloop
  endfacet
  facet normal 0 -0.707121 0.707092
    outer loop
      vertex -20.5 18.3191 -2.71021
      vertex -1.5 19.0602 -1.96908
      vertex -20.5 19.0602 -1.96908
    endloop
  endfacet
  facet normal 0 -0.707121 0.707092
    outer loop
      vertex -1.5 19.0602 -1.96908
      vertex -20.5 18.3191 -2.71021
      vertex -1.5 18.3191 -2.71021
    endloop
  endfacet
  facet normal 0 0.453979 -0.891013
    outer loop
      vertex 1.5 14.3809 2.71021
      vertex 16.495 15.3148 3.18604
      vertex 16.495 14.3809 2.71021
    endloop
  endfacet
  facet normal 0 0.453979 -0.891013
    outer loop
      vertex 16.495 15.3148 3.18604
      vertex 1.5 14.3809 2.71021
      vertex 1.5 15.3148 3.18604
    endloop
  endfacet
  facet normal 0 0.453979 -0.891013
    outer loop
      vertex -20.5 14.3809 2.71021
      vertex -1.5 15.3148 3.18604
      vertex -1.5 14.3809 2.71021
    endloop
  endfacet
  facet normal 0 0.453979 -0.891013
    outer loop
      vertex -1.5 15.3148 3.18604
      vertex -20.5 14.3809 2.71021
      vertex -20.5 15.3148 3.18604
    endloop
  endfacet
  facet normal 0 0 -1
    outer loop
      vertex 16.495 16.35 3.35
      vertex 20.5 13 3.35
      vertex 16.495 13 3.35
    endloop
  endfacet
  facet normal 0 0 -1
    outer loop
      vertex 20.5 13 3.35
      vertex 16.495 16.35 3.35
      vertex 20.5 19.7 3.35
    endloop
  endfacet
  facet normal -0 0 -1
    outer loop
      vertex 20.5 19.7 3.35
      vertex 16.495 16.35 3.35
      vertex 16.495 19.7 3.35
    endloop
  endfacet
  facet normal 0 0 1
    outer loop
      vertex 16.495 16.35 -3.35
      vertex 20.5 19.7 -3.35
      vertex 16.495 19.7 -3.35
    endloop
  endfacet
  facet normal 0 0 1
    outer loop
      vertex 20.5 19.7 -3.35
      vertex 16.495 16.35 -3.35
      vertex 20.5 13 -3.35
    endloop
  endfacet
  facet normal 0 0 1
    outer loop
      vertex 20.5 13 -3.35
      vertex 16.495 16.35 -3.35
      vertex 16.495 13 -3.35
    endloop
  endfacet
  facet normal 1 0 0
    outer loop
      vertex 16.495 19.7 3.35
      vertex 16.495 19.536 1.03521
      vertex 16.495 19.7 0
    endloop
  endfacet
  facet normal 1 0 0
    outer loop
      vertex 16.495 19.7 3.35
      vertex 16.495 19.0602 1.96908
      vertex 16.495 19.536 1.03521
    endloop
  endfacet
  facet normal 1 0 0
    outer loop
      vertex 16.495 19.7 3.35
      vertex 16.495 18.3191 2.71021
      vertex 16.495 19.0602 1.96908
    endloop
  endfacet
  facet normal 1 0 0
    outer loop
      vertex 16.495 19.7 3.35
      vertex 16.495 17.3852 3.18604
      vertex 16.495 18.3191 2.71021
    endloop
  endfacet
  facet normal 1 0 -0
    outer loop
      vertex 16.495 17.3852 3.18604
      vertex 16.495 19.7 3.35
      vertex 16.495 16.35 3.35
    endloop
  endfacet
  facet normal 1 -0 0
    outer loop
      vertex 16.495 13 3.35
      vertex 16.495 15.3148 3.18604
      vertex 16.495 16.35 3.35
    endloop
  endfacet
  facet normal 1 0 0
    outer loop
      vertex 16.495 13 3.35
      vertex 16.495 14.3809 2.71021
      vertex 16.495 15.3148 3.18604
    endloop
  endfacet
  facet normal 1 0 0
    outer loop
      vertex 16.495 13 3.35
      vertex 16.495 13.6398 1.96908
      vertex 16.495 14.3809 2.71021
    endloop
  endfacet
  facet normal 1 0 0
    outer loop
      vertex 16.495 13 3.35
      vertex 16.495 13.164 1.03521
      vertex 16.495 13.6398 1.96908
    endloop
  endfacet
  facet normal 1 0 0
    outer loop
      vertex 16.495 13.164 1.03521
      vertex 16.495 13 3.35
      vertex 16.495 13 0
    endloop
  endfacet
  facet normal 1 0 0
    outer loop
      vertex 16.495 15.3148 -3.18604
      vertex 16.495 13 -3.35
      vertex 16.495 16.35 -3.35
    endloop
  endfacet
  facet normal 1 0 0
    outer loop
      vertex 16.495 14.3809 -2.71021
      vertex 16.495 13 -3.35
      vertex 16.495 15.3148 -3.18604
    endloop
  endfacet
  facet normal 1 0 0
    outer loop
      vertex 16.495 13.6398 -1.96908
      vertex 16.495 13 -3.35
      vertex 16.495 14.3809 -2.71021
    endloop
  endfacet
  facet normal 1 0 0
    outer loop
      vertex 16.495 13.164 -1.03521
      vertex 16.495 13 -3.35
      vertex 16.495 13.6398 -1.96908
    endloop
  endfacet
  facet normal 1 0 0
    outer loop
      vertex 16.495 13 -3.35
      vertex 16.495 13.164 -1.03521
      vertex 16.495 13 0
    endloop
  endfacet
  facet normal 1 -0 0
    outer loop
      vertex 16.495 19.536 -1.03521
      vertex 16.495 19.7 -3.35
      vertex 16.495 19.7 0
    endloop
  endfacet
  facet normal 1 -0 0
    outer loop
      vertex 16.495 19.0602 -1.96908
      vertex 16.495 19.7 -3.35
      vertex 16.495 19.536 -1.03521
    endloop
  endfacet
  facet normal 1 -0 0
    outer loop
      vertex 16.495 18.3191 -2.71021
      vertex 16.495 19.7 -3.35
      vertex 16.495 19.0602 -1.96908
    endloop
  endfacet
  facet normal 1 -0 0
    outer loop
      vertex 16.495 17.3852 -3.18604
      vertex 16.495 19.7 -3.35
      vertex 16.495 18.3191 -2.71021
    endloop
  endfacet
  facet normal 1 0 0
    outer loop
      vertex 16.495 19.7 -3.35
      vertex 16.495 17.3852 -3.18604
      vertex 16.495 16.35 -3.35
    endloop
  endfacet
  facet normal 0 -1 0
    outer loop
      vertex 16.495 19.7 0
      vertex 20.5 19.7 3.35
      vertex 16.495 19.7 3.35
    endloop
  endfacet
  facet normal 0 -1 0
    outer loop
      vertex 20.5 19.7 -3.35
      vertex 16.495 19.7 0
      vertex 16.495 19.7 -3.35
    endloop
  endfacet
  facet normal 0 -1 0
    outer loop
      vertex 16.495 19.7 0
      vertex 20.5 19.7 -3.35
      vertex 20.5 19.7 3.35
    endloop
  endfacet
  facet normal 0 1 0
    outer loop
      vertex 20.5 13 3.35
      vertex 16.495 13 0
      vertex 16.495 13 3.35
    endloop
  endfacet
  facet normal 0 1 -0
    outer loop
      vertex 20.5 13 -3.35
      vertex 16.495 13 0
      vertex 20.5 13 3.35
    endloop
  endfacet
  facet normal 0 1 0
    outer loop
      vertex 16.495 13 0
      vertex 20.5 13 -3.35
      vertex 16.495 13 -3.35
    endloop
  endfacet
  facet normal -0.987686 -0.156452 0
    outer loop
      vertex 11.9343 1.25434 -8.35
      vertex 11.8559 1.74928 8.35
      vertex 11.8559 1.74928 -8.35
    endloop
  endfacet
  facet normal -0.987686 -0.156452 0
    outer loop
      vertex 11.8559 1.74928 8.35
      vertex 11.9343 1.25434 -8.35
      vertex 11.9343 1.25434 8.35
    endloop
  endfacet
  facet normal -0.998631 -0.0523064 0
    outer loop
      vertex 12 0 -8.35
      vertex 11.9343 1.25434 8.35
      vertex 11.9343 1.25434 -8.35
    endloop
  endfacet
  facet normal -0.998631 -0.0523064 0
    outer loop
      vertex 11.9343 1.25434 8.35
      vertex 12 0 -8.35
      vertex 12 0 8.35
    endloop
  endfacet
  facet normal -0.707097 -0.707117 0
    outer loop
      vertex 8.91774 8.02957 -8.35
      vertex 8.5634 8.3839 8.35
      vertex 8.5634 8.3839 -8.35
    endloop
  endfacet
  facet normal -0.707097 -0.707117 0
    outer loop
      vertex 8.5634 8.3839 8.35
      vertex 8.91774 8.02957 -8.35
      vertex 8.91774 8.02957 8.35
    endloop
  endfacet
  facet normal -0.453994 0.891005 0
    outer loop
      vertex 5.32733 -10.735 -8.35
      vertex 4.88084 -10.9625 8.35
      vertex 5.32733 -10.735 8.35
    endloop
  endfacet
  facet normal -0.453994 0.891005 0
    outer loop
      vertex 4.88084 -10.9625 8.35
      vertex 5.32733 -10.735 -8.35
      vertex 4.88084 -10.9625 -8.35
    endloop
  endfacet
  facet normal -0.707097 0.707117 0
    outer loop
      vertex 8.5634 -8.3839 -8.35
      vertex 8.91774 -8.02957 8.35
      vertex 8.91774 -8.02957 -8.35
    endloop
  endfacet
  facet normal -0.707097 0.707117 0
    outer loop
      vertex 8.91774 -8.02957 8.35
      vertex 8.5634 -8.3839 -8.35
      vertex 8.5634 -8.3839 8.35
    endloop
  endfacet
  facet normal 0.156452 0.987686 -0
    outer loop
      vertex -2 -11.8162 -8.35
      vertex -2.49494 -11.7378 8.35
      vertex -2 -11.8162 8.35
    endloop
  endfacet
  facet normal 0.156452 0.987686 0
    outer loop
      vertex -2.49494 -11.7378 8.35
      vertex -2 -11.8162 -8.35
      vertex -2.49494 -11.7378 -8.35
    endloop
  endfacet
  facet normal 0.77715 -0.629315 0
    outer loop
      vertex -9.7082 7.05342 8.35
      vertex -8.91774 8.02957 -8.35
      vertex -8.91774 8.02957 8.35
    endloop
  endfacet
  facet normal 0.77715 -0.629315 0
    outer loop
      vertex -8.91774 8.02957 -8.35
      vertex -9.7082 7.05342 8.35
      vertex -9.7082 7.05342 -8.35
    endloop
  endfacet
  facet normal 0.156452 -0.987686 0
    outer loop
      vertex -2.49494 11.7378 -8.35
      vertex -2 11.8162 8.35
      vertex -2.49494 11.7378 8.35
    endloop
  endfacet
  facet normal 0.156452 -0.987686 0
    outer loop
      vertex -2 11.8162 8.35
      vertex -2.49494 11.7378 -8.35
      vertex -2 11.8162 -8.35
    endloop
  endfacet
  facet normal 0.987686 0.156452 0
    outer loop
      vertex -11.8559 -1.74928 8.35
      vertex -11.9343 -1.25434 -8.35
      vertex -11.9343 -1.25434 8.35
    endloop
  endfacet
  facet normal 0.987686 0.156452 0
    outer loop
      vertex -11.9343 -1.25434 -8.35
      vertex -11.8559 -1.74928 8.35
      vertex -11.8559 -1.74928 -8.35
    endloop
  endfacet
  facet normal -0.258825 0.965924 0
    outer loop
      vertex 3.7082 -11.4127 -8.35
      vertex 2.49494 -11.7378 8.35
      vertex 3.7082 -11.4127 8.35
    endloop
  endfacet
  facet normal -0.258825 0.965924 0
    outer loop
      vertex 2.49494 -11.7378 8.35
      vertex 3.7082 -11.4127 -8.35
      vertex 2.49494 -11.7378 -8.35
    endloop
  endfacet
  facet normal -0.156452 -0.987686 0
    outer loop
      vertex 2 11.8162 -8.35
      vertex 2.49494 11.7378 8.35
      vertex 2 11.8162 8.35
    endloop
  endfacet
  facet normal -0.156452 -0.987686 -0
    outer loop
      vertex 2.49494 11.7378 8.35
      vertex 2 11.8162 -8.35
      vertex 2.49494 11.7378 -8.35
    endloop
  endfacet
  facet normal -0.83867 -0.54464 0
    outer loop
      vertex 10.3923 6 -8.35
      vertex 9.7082 7.05342 8.35
      vertex 9.7082 7.05342 -8.35
    endloop
  endfacet
  facet normal -0.83867 -0.54464 0
    outer loop
      vertex 9.7082 7.05342 8.35
      vertex 10.3923 6 -8.35
      vertex 10.3923 6 8.35
    endloop
  endfacet
  facet normal -0.83867 0.54464 0
    outer loop
      vertex 9.7082 -7.05342 -8.35
      vertex 10.3923 -6 8.35
      vertex 10.3923 -6 -8.35
    endloop
  endfacet
  facet normal -0.83867 0.54464 0
    outer loop
      vertex 10.3923 -6 8.35
      vertex 9.7082 -7.05342 -8.35
      vertex 9.7082 -7.05342 8.35
    endloop
  endfacet
  facet normal 0.358414 -0.933563 0
    outer loop
      vertex -4.88084 10.9625 -8.35
      vertex -3.7082 11.4127 8.35
      vertex -4.88084 10.9625 8.35
    endloop
  endfacet
  facet normal 0.358414 -0.933563 0
    outer loop
      vertex -3.7082 11.4127 8.35
      vertex -4.88084 10.9625 -8.35
      vertex -3.7082 11.4127 -8.35
    endloop
  endfacet
  facet normal 0.83867 -0.54464 0
    outer loop
      vertex -10.3923 6 8.35
      vertex -9.7082 7.05342 -8.35
      vertex -9.7082 7.05342 8.35
    endloop
  endfacet
  facet normal 0.83867 -0.54464 0
    outer loop
      vertex -9.7082 7.05342 -8.35
      vertex -10.3923 6 8.35
      vertex -10.3923 6 -8.35
    endloop
  endfacet
  facet normal -0.77715 0.629315 0
    outer loop
      vertex 8.91774 -8.02957 -8.35
      vertex 9.7082 -7.05342 8.35
      vertex 9.7082 -7.05342 -8.35
    endloop
  endfacet
  facet normal -0.77715 0.629315 0
    outer loop
      vertex 9.7082 -7.05342 8.35
      vertex 8.91774 -8.02957 -8.35
      vertex 8.91774 -8.02957 8.35
    endloop
  endfacet
  facet normal -0.453994 -0.891005 0
    outer loop
      vertex 4.88084 10.9625 -8.35
      vertex 5.32733 10.735 8.35
      vertex 4.88084 10.9625 8.35
    endloop
  endfacet
  facet normal -0.453994 -0.891005 -0
    outer loop
      vertex 5.32733 10.735 8.35
      vertex 4.88084 10.9625 -8.35
      vertex 5.32733 10.735 -8.35
    endloop
  endfacet
  facet normal 0.891005 0.453994 0
    outer loop
      vertex -10.3923 -6 8.35
      vertex -10.6198 -5.55351 -8.35
      vertex -10.6198 -5.55351 8.35
    endloop
  endfacet
  facet normal 0.891005 0.453994 0
    outer loop
      vertex -10.6198 -5.55351 -8.35
      vertex -10.3923 -6 8.35
      vertex -10.3923 -6 -8.35
    endloop
  endfacet
  facet normal 0.83867 0.54464 0
    outer loop
      vertex -9.7082 -7.05342 8.35
      vertex -10.3923 -6 -8.35
      vertex -10.3923 -6 8.35
    endloop
  endfacet
  facet normal 0.83867 0.54464 0
    outer loop
      vertex -10.3923 -6 -8.35
      vertex -9.7082 -7.05342 8.35
      vertex -9.7082 -7.05342 -8.35
    endloop
  endfacet
  facet normal -0.987686 0.156452 0
    outer loop
      vertex 11.8559 -1.74928 -8.35
      vertex 11.9343 -1.25434 8.35
      vertex 11.9343 -1.25434 -8.35
    endloop
  endfacet
  facet normal -0.987686 0.156452 0
    outer loop
      vertex 11.9343 -1.25434 8.35
      vertex 11.8559 -1.74928 -8.35
      vertex 11.8559 -1.74928 8.35
    endloop
  endfacet
  facet normal -0.998631 0.0523064 0
    outer loop
      vertex 11.9343 -1.25434 -8.35
      vertex 12 0 8.35
      vertex 12 0 -8.35
    endloop
  endfacet
  facet normal -0.998631 0.0523064 0
    outer loop
      vertex 12 0 8.35
      vertex 11.9343 -1.25434 -8.35
      vertex 11.9343 -1.25434 8.35
    endloop
  endfacet
  facet normal -0.891005 -0.453994 0
    outer loop
      vertex 10.6198 5.55351 -8.35
      vertex 10.3923 6 8.35
      vertex 10.3923 6 -8.35
    endloop
  endfacet
  facet normal -0.891005 -0.453994 0
    outer loop
      vertex 10.3923 6 8.35
      vertex 10.6198 5.55351 -8.35
      vertex 10.6198 5.55351 8.35
    endloop
  endfacet
  facet normal 0.998631 -0.0523064 0
    outer loop
      vertex -12 0 8.35
      vertex -11.9343 1.25434 -8.35
      vertex -11.9343 1.25434 8.35
    endloop
  endfacet
  facet normal 0.998631 -0.0523064 0
    outer loop
      vertex -11.9343 1.25434 -8.35
      vertex -12 0 8.35
      vertex -12 0 -8.35
    endloop
  endfacet
  facet normal 0.453994 0.891005 -0
    outer loop
      vertex -4.88084 -10.9625 -8.35
      vertex -5.32733 -10.735 8.35
      vertex -4.88084 -10.9625 8.35
    endloop
  endfacet
  facet normal 0.453994 0.891005 0
    outer loop
      vertex -5.32733 -10.735 8.35
      vertex -4.88084 -10.9625 -8.35
      vertex -5.32733 -10.735 -8.35
    endloop
  endfacet
  facet normal -0.358414 -0.933563 0
    outer loop
      vertex 3.7082 11.4127 -8.35
      vertex 4.88084 10.9625 8.35
      vertex 3.7082 11.4127 8.35
    endloop
  endfacet
  facet normal -0.358414 -0.933563 -0
    outer loop
      vertex 4.88084 10.9625 8.35
      vertex 3.7082 11.4127 -8.35
      vertex 4.88084 10.9625 -8.35
    endloop
  endfacet
  facet normal 0.891005 -0.453994 0
    outer loop
      vertex -10.6198 5.55351 8.35
      vertex -10.3923 6 -8.35
      vertex -10.3923 6 8.35
    endloop
  endfacet
  facet normal 0.891005 -0.453994 0
    outer loop
      vertex -10.3923 6 -8.35
      vertex -10.6198 5.55351 8.35
      vertex -10.6198 5.55351 -8.35
    endloop
  endfacet
  facet normal 0.77715 0.629315 0
    outer loop
      vertex -8.91774 -8.02957 8.35
      vertex -9.7082 -7.05342 -8.35
      vertex -9.7082 -7.05342 8.35
    endloop
  endfacet
  facet normal 0.77715 0.629315 0
    outer loop
      vertex -9.7082 -7.05342 -8.35
      vertex -8.91774 -8.02957 8.35
      vertex -8.91774 -8.02957 -8.35
    endloop
  endfacet
  facet normal -0.156452 0.987686 0
    outer loop
      vertex 2.49494 -11.7378 -8.35
      vertex 2 -11.8162 8.35
      vertex 2.49494 -11.7378 8.35
    endloop
  endfacet
  facet normal -0.156452 0.987686 0
    outer loop
      vertex 2 -11.8162 8.35
      vertex 2.49494 -11.7378 -8.35
      vertex 2 -11.8162 -8.35
    endloop
  endfacet
  facet normal -0.77715 -0.629315 0
    outer loop
      vertex 9.7082 7.05342 -8.35
      vertex 8.91774 8.02957 8.35
      vertex 8.91774 8.02957 -8.35
    endloop
  endfacet
  facet normal -0.77715 -0.629315 0
    outer loop
      vertex 8.91774 8.02957 8.35
      vertex 9.7082 7.05342 -8.35
      vertex 9.7082 7.05342 8.35
    endloop
  endfacet
  facet normal 0.358414 0.933563 -0
    outer loop
      vertex -3.7082 -11.4127 -8.35
      vertex -4.88084 -10.9625 8.35
      vertex -3.7082 -11.4127 8.35
    endloop
  endfacet
  facet normal 0.358414 0.933563 0
    outer loop
      vertex -4.88084 -10.9625 8.35
      vertex -3.7082 -11.4127 -8.35
      vertex -4.88084 -10.9625 -8.35
    endloop
  endfacet
  facet normal 0.258825 0.965924 -0
    outer loop
      vertex -2.49494 -11.7378 -8.35
      vertex -3.7082 -11.4127 8.35
      vertex -2.49494 -11.7378 8.35
    endloop
  endfacet
  facet normal 0.258825 0.965924 0
    outer loop
      vertex -3.7082 -11.4127 8.35
      vertex -2.49494 -11.7378 -8.35
      vertex -3.7082 -11.4127 -8.35
    endloop
  endfacet
  facet normal 0.987686 -0.156452 0
    outer loop
      vertex -11.9343 1.25434 8.35
      vertex -11.8559 1.74928 -8.35
      vertex -11.8559 1.74928 8.35
    endloop
  endfacet
  facet normal 0.987686 -0.156452 0
    outer loop
      vertex -11.8559 1.74928 -8.35
      vertex -11.9343 1.25434 8.35
      vertex -11.9343 1.25434 -8.35
    endloop
  endfacet
  facet normal 0.258825 -0.965924 0
    outer loop
      vertex -3.7082 11.4127 -8.35
      vertex -2.49494 11.7378 8.35
      vertex -3.7082 11.4127 8.35
    endloop
  endfacet
  facet normal 0.258825 -0.965924 0
    outer loop
      vertex -2.49494 11.7378 8.35
      vertex -3.7082 11.4127 -8.35
      vertex -2.49494 11.7378 -8.35
    endloop
  endfacet
  facet normal 0.998631 0.0523064 0
    outer loop
      vertex -11.9343 -1.25434 8.35
      vertex -12 0 -8.35
      vertex -12 0 8.35
    endloop
  endfacet
  facet normal 0.998631 0.0523064 0
    outer loop
      vertex -12 0 -8.35
      vertex -11.9343 -1.25434 8.35
      vertex -11.9343 -1.25434 -8.35
    endloop
  endfacet
  facet normal -0.258825 -0.965924 0
    outer loop
      vertex 2.49494 11.7378 -8.35
      vertex 3.7082 11.4127 8.35
      vertex 2.49494 11.7378 8.35
    endloop
  endfacet
  facet normal -0.258825 -0.965924 -0
    outer loop
      vertex 3.7082 11.4127 8.35
      vertex 2.49494 11.7378 -8.35
      vertex 3.7082 11.4127 -8.35
    endloop
  endfacet
  facet normal -0.358414 0.933563 0
    outer loop
      vertex 4.88084 -10.9625 -8.35
      vertex 3.7082 -11.4127 8.35
      vertex 4.88084 -10.9625 8.35
    endloop
  endfacet
  facet normal -0.358414 0.933563 0
    outer loop
      vertex 3.7082 -11.4127 8.35
      vertex 4.88084 -10.9625 -8.35
      vertex 3.7082 -11.4127 -8.35
    endloop
  endfacet
  facet normal -0.891005 0.453994 0
    outer loop
      vertex 10.3923 -6 -8.35
      vertex 10.6198 -5.55351 8.35
      vertex 10.6198 -5.55351 -8.35
    endloop
  endfacet
  facet normal -0.891005 0.453994 0
    outer loop
      vertex 10.6198 -5.55351 8.35
      vertex 10.3923 -6 -8.35
      vertex 10.3923 -6 8.35
    endloop
  endfacet
  facet normal 0.453994 -0.891005 0
    outer loop
      vertex -5.32733 10.735 -8.35
      vertex -4.88084 10.9625 8.35
      vertex -5.32733 10.735 8.35
    endloop
  endfacet
  facet normal 0.453994 -0.891005 0
    outer loop
      vertex -4.88084 10.9625 8.35
      vertex -5.32733 10.735 -8.35
      vertex -4.88084 10.9625 -8.35
    endloop
  endfacet
  facet normal 0.707097 -0.707117 0
    outer loop
      vertex -8.91774 8.02957 8.35
      vertex -8.5634 8.3839 -8.35
      vertex -8.5634 8.3839 8.35
    endloop
  endfacet
  facet normal 0.707097 -0.707117 0
    outer loop
      vertex -8.5634 8.3839 -8.35
      vertex -8.91774 8.02957 8.35
      vertex -8.91774 8.02957 -8.35
    endloop
  endfacet
  facet normal 0.707097 0.707117 0
    outer loop
      vertex -8.5634 -8.3839 8.35
      vertex -8.91774 -8.02957 -8.35
      vertex -8.91774 -8.02957 8.35
    endloop
  endfacet
  facet normal 0.707097 0.707117 0
    outer loop
      vertex -8.91774 -8.02957 -8.35
      vertex -8.5634 -8.3839 8.35
      vertex -8.5634 -8.3839 -8.35
    endloop
  endfacet
  facet normal -1 0 0
    outer loop
      vertex 1.5 24.7 -8.35
      vertex 1.5 19.7 0
      vertex 1.5 24.7 8.35
    endloop
  endfacet
  facet normal -1 0 0
    outer loop
      vertex 1.5 24.7 -8.35
      vertex 1.5 19.536 -1.03521
      vertex 1.5 19.7 0
    endloop
  endfacet
  facet normal -1 0 0
    outer loop
      vertex 1.5 24.7 -8.35
      vertex 1.5 19.0602 -1.96908
      vertex 1.5 19.536 -1.03521
    endloop
  endfacet
  facet normal -1 0 0
    outer loop
      vertex 1.5 24.7 -8.35
      vertex 1.5 18.3191 -2.71021
      vertex 1.5 19.0602 -1.96908
    endloop
  endfacet
  facet normal -1 0 0
    outer loop
      vertex 1.5 24.7 -8.35
      vertex 1.5 17.3852 -3.18604
      vertex 1.5 18.3191 -2.71021
    endloop
  endfacet
  facet normal -1 0 0
    outer loop
      vertex 1.5 13 -8.35
      vertex 1.5 17.3852 -3.18604
      vertex 1.5 24.7 -8.35
    endloop
  endfacet
  facet normal -1 0 0
    outer loop
      vertex 1.5 17.3852 -3.18604
      vertex 1.5 13 -8.35
      vertex 1.5 16.35 -3.35
    endloop
  endfacet
  facet normal -1 -0 0
    outer loop
      vertex 1.5 16.35 -3.35
      vertex 1.5 13 -8.35
      vertex 1.5 15.3148 -3.18604
    endloop
  endfacet
  facet normal -1 -0 0
    outer loop
      vertex 1.5 13.164 -1.03521
      vertex 1.5 13 -8.35
      vertex 1.5 13 0
    endloop
  endfacet
  facet normal -1 -0 0
    outer loop
      vertex 1.5 13.6398 -1.96908
      vertex 1.5 13 -8.35
      vertex 1.5 13.164 -1.03521
    endloop
  endfacet
  facet normal -1 -0 0
    outer loop
      vertex 1.5 14.3809 -2.71021
      vertex 1.5 13 -8.35
      vertex 1.5 13.6398 -1.96908
    endloop
  endfacet
  facet normal -1 -0 0
    outer loop
      vertex 1.5 15.3148 -3.18604
      vertex 1.5 13 -8.35
      vertex 1.5 14.3809 -2.71021
    endloop
  endfacet
  facet normal -1 0 0
    outer loop
      vertex 1.5 19.536 1.03521
      vertex 1.5 24.7 8.35
      vertex 1.5 19.7 0
    endloop
  endfacet
  facet normal -1 0 0
    outer loop
      vertex 1.5 19.0602 1.96908
      vertex 1.5 24.7 8.35
      vertex 1.5 19.536 1.03521
    endloop
  endfacet
  facet normal -1 0 0
    outer loop
      vertex 1.5 18.3191 2.71021
      vertex 1.5 24.7 8.35
      vertex 1.5 19.0602 1.96908
    endloop
  endfacet
  facet normal -1 0 0
    outer loop
      vertex 1.5 17.3852 3.18604
      vertex 1.5 24.7 8.35
      vertex 1.5 18.3191 2.71021
    endloop
  endfacet
  facet normal -1 0 0
    outer loop
      vertex 1.5 13 8.35
      vertex 1.5 17.3852 3.18604
      vertex 1.5 16.35 3.35
    endloop
  endfacet
  facet normal -1 0 0
    outer loop
      vertex 1.5 13 8.35
      vertex 1.5 16.35 3.35
      vertex 1.5 15.3148 3.18604
    endloop
  endfacet
  facet normal -1 0 0
    outer loop
      vertex 1.5 13 8.35
      vertex 1.5 15.3148 3.18604
      vertex 1.5 14.3809 2.71021
    endloop
  endfacet
  facet normal -1 0 0
    outer loop
      vertex 1.5 17.3852 3.18604
      vertex 1.5 13 8.35
      vertex 1.5 24.7 8.35
    endloop
  endfacet
  facet normal -1 0 0
    outer loop
      vertex 1.5 13.6398 1.96908
      vertex 1.5 13 8.35
      vertex 1.5 14.3809 2.71021
    endloop
  endfacet
  facet normal -1 0 0
    outer loop
      vertex 1.5 13.164 1.03521
      vertex 1.5 13 8.35
      vertex 1.5 13.6398 1.96908
    endloop
  endfacet
  facet normal -1 0 0
    outer loop
      vertex 1.5 13 0
      vertex 1.5 13 8.35
      vertex 1.5 13.164 1.03521
    endloop
  endfacet
  facet normal 0 0 0
    outer loop
      vertex 1.5 13 8.35
      vertex 1.5 13 0
      vertex 1.5 13 -8.35
    endloop
  endfacet
  facet normal 1 0 0
    outer loop
      vertex -1.5 24.7 8.35
      vertex -1.5 19.7 0
      vertex -1.5 24.7 -8.35
    endloop
  endfacet
  facet normal 1 0 0
    outer loop
      vertex -1.5 24.7 8.35
      vertex -1.5 19.536 1.03521
      vertex -1.5 19.7 0
    endloop
  endfacet
  facet normal 1 0 0
    outer loop
      vertex -1.5 24.7 8.35
      vertex -1.5 19.0602 1.96908
      vertex -1.5 19.536 1.03521
    endloop
  endfacet
  facet normal 1 0 0
    outer loop
      vertex -1.5 24.7 8.35
      vertex -1.5 18.3191 2.71021
      vertex -1.5 19.0602 1.96908
    endloop
  endfacet
  facet normal 1 0 0
    outer loop
      vertex -1.5 24.7 8.35
      vertex -1.5 17.3852 3.18604
      vertex -1.5 18.3191 2.71021
    endloop
  endfacet
  facet normal 1 -0 0
    outer loop
      vertex -1.5 13 8.35
      vertex -1.5 17.3852 3.18604
      vertex -1.5 24.7 8.35
    endloop
  endfacet
  facet normal 1 0 0
    outer loop
      vertex -1.5 17.3852 3.18604
      vertex -1.5 13 8.35
      vertex -1.5 16.35 3.35
    endloop
  endfacet
  facet normal 1 0 0
    outer loop
      vertex -1.5 16.35 3.35
      vertex -1.5 13 8.35
      vertex -1.5 15.3148 3.18604
    endloop
  endfacet
  facet normal 1 0 0
    outer loop
      vertex -1.5 13.164 1.03521
      vertex -1.5 13 8.35
      vertex -1.5 13 0
    endloop
  endfacet
  facet normal 1 0 0
    outer loop
      vertex -1.5 13.6398 1.96908
      vertex -1.5 13 8.35
      vertex -1.5 13.164 1.03521
    endloop
  endfacet
  facet normal 1 0 0
    outer loop
      vertex -1.5 14.3809 2.71021
      vertex -1.5 13 8.35
      vertex -1.5 13.6398 1.96908
    endloop
  endfacet
  facet normal 1 0 0
    outer loop
      vertex -1.5 15.3148 3.18604
      vertex -1.5 13 8.35
      vertex -1.5 14.3809 2.71021
    endloop
  endfacet
  facet normal 1 -0 0
    outer loop
      vertex -1.5 19.536 -1.03521
      vertex -1.5 24.7 -8.35
      vertex -1.5 19.7 0
    endloop
  endfacet
  facet normal 1 -0 0
    outer loop
      vertex -1.5 19.0602 -1.96908
      vertex -1.5 24.7 -8.35
      vertex -1.5 19.536 -1.03521
    endloop
  endfacet
  facet normal 1 -0 0
    outer loop
      vertex -1.5 18.3191 -2.71021
      vertex -1.5 24.7 -8.35
      vertex -1.5 19.0602 -1.96908
    endloop
  endfacet
  facet normal 1 -0 0
    outer loop
      vertex -1.5 17.3852 -3.18604
      vertex -1.5 24.7 -8.35
      vertex -1.5 18.3191 -2.71021
    endloop
  endfacet
  facet normal 1 0 0
    outer loop
      vertex -1.5 13 -8.35
      vertex -1.5 17.3852 -3.18604
      vertex -1.5 16.35 -3.35
    endloop
  endfacet
  facet normal 1 0 0
    outer loop
      vertex -1.5 13 -8.35
      vertex -1.5 16.35 -3.35
      vertex -1.5 15.3148 -3.18604
    endloop
  endfacet
  facet normal 1 0 0
    outer loop
      vertex -1.5 13 -8.35
      vertex -1.5 15.3148 -3.18604
      vertex -1.5 14.3809 -2.71021
    endloop
  endfacet
  facet normal 1 0 0
    outer loop
      vertex -1.5 17.3852 -3.18604
      vertex -1.5 13 -8.35
      vertex -1.5 24.7 -8.35
    endloop
  endfacet
  facet normal 1 0 0
    outer loop
      vertex -1.5 13.6398 -1.96908
      vertex -1.5 13 -8.35
      vertex -1.5 14.3809 -2.71021
    endloop
  endfacet
  facet normal 1 0 0
    outer loop
      vertex -1.5 13.164 -1.03521
      vertex -1.5 13 -8.35
      vertex -1.5 13.6398 -1.96908
    endloop
  endfacet
  facet normal 1 0 0
    outer loop
      vertex -1.5 13 0
      vertex -1.5 13 -8.35
      vertex -1.5 13.164 -1.03521
    endloop
  endfacet
  facet normal 0 0 0
    outer loop
      vertex -1.5 13 -8.35
      vertex -1.5 13 0
      vertex -1.5 13 8.35
    endloop
  endfacet
  facet normal 1 0 0
    outer loop
      vertex 20.5 24.7 8.35
      vertex 20.5 19.7 3.35
      vertex 20.5 24.7 -8.35
    endloop
  endfacet
  facet normal 1 0 0
    outer loop
      vertex 20.5 24.7 8.35
      vertex 20.5 13 3.35
      vertex 20.5 19.7 3.35
    endloop
  endfacet
  facet normal 1 0 0
    outer loop
      vertex 20.5 13 3.35
      vertex 20.5 -24.7 8.35
      vertex 20.5 13 -3.35
    endloop
  endfacet
  facet normal 1 -0 0
    outer loop
      vertex 20.5 -24.7 8.35
      vertex 20.5 13 3.35
      vertex 20.5 24.7 8.35
    endloop
  endfacet
  facet normal 1 -0 0
    outer loop
      vertex 20.5 19.7 -3.35
      vertex 20.5 24.7 -8.35
      vertex 20.5 19.7 3.35
    endloop
  endfacet
  facet normal 1 -0 0
    outer loop
      vertex 20.5 13 -3.35
      vertex 20.5 24.7 -8.35
      vertex 20.5 19.7 -3.35
    endloop
  endfacet
  facet normal 1 0 0
    outer loop
      vertex 20.5 -24.7 -8.35
      vertex 20.5 13 -3.35
      vertex 20.5 -24.7 8.35
    endloop
  endfacet
  facet normal 1 0 0
    outer loop
      vertex 20.5 13 -3.35
      vertex 20.5 -24.7 -8.35
      vertex 20.5 24.7 -8.35
    endloop
  endfacet
  facet normal 0 0 1
    outer loop
      vertex -1.5 24.7 8.35
      vertex -2 13 8.35
      vertex -1.5 13 8.35
    endloop
  endfacet
  facet normal 0 0 1
    outer loop
      vertex -2 13 8.35
      vertex -2.49494 11.7378 8.35
      vertex -2 11.8162 8.35
    endloop
  endfacet
  facet normal 0 0 1
    outer loop
      vertex -6.02317 11.6928 8.35
      vertex -2 13 8.35
      vertex -1.5 24.7 8.35
    endloop
  endfacet
  facet normal 0 -0 1
    outer loop
      vertex -3.7082 11.4127 8.35
      vertex -2 13 8.35
      vertex -6.02317 11.6928 8.35
    endloop
  endfacet
  facet normal 0 0 1
    outer loop
      vertex -2 13 8.35
      vertex -3.7082 11.4127 8.35
      vertex -2.49494 11.7378 8.35
    endloop
  endfacet
  facet normal 0 0 1
    outer loop
      vertex -3.7082 11.4127 8.35
      vertex -6.02317 11.6928 8.35
      vertex -4.88084 10.9625 8.35
    endloop
  endfacet
  facet normal 0 0 1
    outer loop
      vertex -4.88084 10.9625 8.35
      vertex -6.02317 11.6928 8.35
      vertex -5.32733 10.735 8.35
    endloop
  endfacet
  facet normal -0 0 1
    outer loop
      vertex -20.5 24.7 8.35
      vertex -6.02317 11.6928 8.35
      vertex -1.5 24.7 8.35
    endloop
  endfacet
  facet normal 0 0 1
    outer loop
      vertex -11.7457 5.91933 8.35
      vertex -9.7082 7.05342 8.35
      vertex -9.25924 9.34165 8.35
    endloop
  endfacet
  facet normal 0 0 1
    outer loop
      vertex -9.7082 7.05342 8.35
      vertex -11.7457 5.91933 8.35
      vertex -10.3923 6 8.35
    endloop
  endfacet
  facet normal 0 0 1
    outer loop
      vertex -10.3923 6 8.35
      vertex -11.7457 5.91933 8.35
      vertex -10.6198 5.55351 8.35
    endloop
  endfacet
  facet normal 0 0 1
    outer loop
      vertex -6.02317 11.6928 8.35
      vertex -20.5 24.7 8.35
      vertex -9.25924 9.34165 8.35
    endloop
  endfacet
  facet normal 0 0 1
    outer loop
      vertex -12.9818 2.11511 8.35
      vertex -20.5 24.7 8.35
      vertex -12.9818 -2.11511 8.35
    endloop
  endfacet
  facet normal 0 0 1
    outer loop
      vertex -11.7457 5.91933 8.35
      vertex -20.5 24.7 8.35
      vertex -12.9818 2.11511 8.35
    endloop
  endfacet
  facet normal 0 0 1
    outer loop
      vertex -9.25924 9.34165 8.35
      vertex -20.5 24.7 8.35
      vertex -11.7457 5.91933 8.35
    endloop
  endfacet
  facet normal 0 0 1
    outer loop
      vertex -9.25924 9.34165 8.35
      vertex -8.91774 8.02957 8.35
      vertex -8.5634 8.3839 8.35
    endloop
  endfacet
  facet normal 0 0 1
    outer loop
      vertex -8.91774 8.02957 8.35
      vertex -9.25924 9.34165 8.35
      vertex -9.7082 7.05342 8.35
    endloop
  endfacet
  facet normal 0 0 1
    outer loop
      vertex -11.9343 1.25434 8.35
      vertex -12.9818 2.11511 8.35
      vertex -12 0 8.35
    endloop
  endfacet
  facet normal 0 0 1
    outer loop
      vertex -12.9818 2.11511 8.35
      vertex -11.9343 1.25434 8.35
      vertex -11.8559 1.74928 8.35
    endloop
  endfacet
  facet normal 0 0 1
    outer loop
      vertex -8.91774 -8.02957 8.35
      vertex -9.25924 -9.34165 8.35
      vertex -8.5634 -8.3839 8.35
    endloop
  endfacet
  facet normal 0 -0 1
    outer loop
      vertex -9.25924 -9.34165 8.35
      vertex -8.91774 -8.02957 8.35
      vertex -9.7082 -7.05342 8.35
    endloop
  endfacet
  facet normal 0 0 1
    outer loop
      vertex -2 -11.8162 8.35
      vertex -2.49494 -11.7378 8.35
      vertex -2 -13 8.35
    endloop
  endfacet
  facet normal -0 0 1
    outer loop
      vertex 8.91774 -8.02957 8.35
      vertex 9.25924 -9.34165 8.35
      vertex 9.7082 -7.05342 8.35
    endloop
  endfacet
  facet normal 0 0 1
    outer loop
      vertex 9.25924 -9.34165 8.35
      vertex 8.91774 -8.02957 8.35
      vertex 8.5634 -8.3839 8.35
    endloop
  endfacet
  facet normal 0 0 1
    outer loop
      vertex 12.9818 2.11511 8.35
      vertex 12 0 8.35
      vertex 12.9818 -2.11511 8.35
    endloop
  endfacet
  facet normal 0 0 1
    outer loop
      vertex 12.9818 2.11511 8.35
      vertex 11.9343 1.25434 8.35
      vertex 12 0 8.35
    endloop
  endfacet
  facet normal 0 -0 1
    outer loop
      vertex 11.9343 1.25434 8.35
      vertex 12.9818 2.11511 8.35
      vertex 11.8559 1.74928 8.35
    endloop
  endfacet
  facet normal 0 0 1
    outer loop
      vertex 20.5 24.7 8.35
      vertex 12.9818 2.11511 8.35
      vertex 20.5 -24.7 8.35
    endloop
  endfacet
  facet normal 0 0 1
    outer loop
      vertex 20.5 24.7 8.35
      vertex 11.7457 5.91933 8.35
      vertex 12.9818 2.11511 8.35
    endloop
  endfacet
  facet normal -0 0 1
    outer loop
      vertex 9.25924 9.34165 8.35
      vertex 11.7457 5.91933 8.35
      vertex 20.5 24.7 8.35
    endloop
  endfacet
  facet normal 0 0 1
    outer loop
      vertex 11.7457 5.91933 8.35
      vertex 10.3923 6 8.35
      vertex 10.6198 5.55351 8.35
    endloop
  endfacet
  facet normal -0 -0 1
    outer loop
      vertex 9.7082 7.05342 8.35
      vertex 11.7457 5.91933 8.35
      vertex 9.25924 9.34165 8.35
    endloop
  endfacet
  facet normal 0 0 1
    outer loop
      vertex 11.7457 5.91933 8.35
      vertex 9.7082 7.05342 8.35
      vertex 10.3923 6 8.35
    endloop
  endfacet
  facet normal 0 0 1
    outer loop
      vertex 20.5 24.7 8.35
      vertex 6.02317 11.6928 8.35
      vertex 9.25924 9.34165 8.35
    endloop
  endfacet
  facet normal 0 0 1
    outer loop
      vertex 6.02317 11.6928 8.35
      vertex 4.88084 10.9625 8.35
      vertex 5.32733 10.735 8.35
    endloop
  endfacet
  facet normal -0 0 1
    outer loop
      vertex 1.5 24.7 8.35
      vertex 6.02317 11.6928 8.35
      vertex 20.5 24.7 8.35
    endloop
  endfacet
  facet normal -0 -0 1
    outer loop
      vertex 2 13 8.35
      vertex 6.02317 11.6928 8.35
      vertex 1.5 24.7 8.35
    endloop
  endfacet
  facet normal 0 -0 1
    outer loop
      vertex 3.7082 11.4127 8.35
      vertex 6.02317 11.6928 8.35
      vertex 2 13 8.35
    endloop
  endfacet
  facet normal 0 0 1
    outer loop
      vertex 3.7082 11.4127 8.35
      vertex 2 13 8.35
      vertex 2.49494 11.7378 8.35
    endloop
  endfacet
  facet normal 0 0 1
    outer loop
      vertex 6.02317 11.6928 8.35
      vertex 3.7082 11.4127 8.35
      vertex 4.88084 10.9625 8.35
    endloop
  endfacet
  facet normal 0 0 1
    outer loop
      vertex 2 13 8.35
      vertex 1.5 24.7 8.35
      vertex 1.5 13 8.35
    endloop
  endfacet
  facet normal -0 0 1
    outer loop
      vertex 12.9818 -2.11511 8.35
      vertex 20.5 -24.7 8.35
      vertex 12.9818 2.11511 8.35
    endloop
  endfacet
  facet normal -0 0 1
    outer loop
      vertex 11.7457 -5.91933 8.35
      vertex 20.5 -24.7 8.35
      vertex 12.9818 -2.11511 8.35
    endloop
  endfacet
  facet normal 0 0 1
    outer loop
      vertex 10.3923 -6 8.35
      vertex 11.7457 -5.91933 8.35
      vertex 10.6198 -5.55351 8.35
    endloop
  endfacet
  facet normal 0 0 1
    outer loop
      vertex 9.7082 -7.05342 8.35
      vertex 11.7457 -5.91933 8.35
      vertex 10.3923 -6 8.35
    endloop
  endfacet
  facet normal 0 0 1
    outer loop
      vertex 11.7457 -5.91933 8.35
      vertex 9.7082 -7.05342 8.35
      vertex 9.25924 -9.34165 8.35
    endloop
  endfacet
  facet normal 0 0 1
    outer loop
      vertex 11.7457 -5.91933 8.35
      vertex 9.25924 -9.34165 8.35
      vertex 20.5 -24.7 8.35
    endloop
  endfacet
  facet normal -0 0 1
    outer loop
      vertex 6.02317 -11.6928 8.35
      vertex 20.5 -24.7 8.35
      vertex 9.25924 -9.34165 8.35
    endloop
  endfacet
  facet normal -0 0 1
    outer loop
      vertex 4.88084 -10.9625 8.35
      vertex 6.02317 -11.6928 8.35
      vertex 5.32733 -10.735 8.35
    endloop
  endfacet
  facet normal -0 0 1
    outer loop
      vertex 3.7082 -11.4127 8.35
      vertex 6.02317 -11.6928 8.35
      vertex 4.88084 -10.9625 8.35
    endloop
  endfacet
  facet normal 0 0 1
    outer loop
      vertex 6.02317 -11.6928 8.35
      vertex 3.7082 -11.4127 8.35
      vertex 2 -13 8.35
    endloop
  endfacet
  facet normal 0 0 1
    outer loop
      vertex 2 -13 8.35
      vertex 3.7082 -11.4127 8.35
      vertex 2.49494 -11.7378 8.35
    endloop
  endfacet
  facet normal 0 0 1
    outer loop
      vertex 2 -13 8.35
      vertex 2.49494 -11.7378 8.35
      vertex 2 -11.8162 8.35
    endloop
  endfacet
  facet normal 0 0 1
    outer loop
      vertex 6.02317 -11.6928 8.35
      vertex 2 -13 8.35
      vertex 20.5 -24.7 8.35
    endloop
  endfacet
  facet normal -0 0 1
    outer loop
      vertex -2 -13 8.35
      vertex 20.5 -24.7 8.35
      vertex 2 -13 8.35
    endloop
  endfacet
  facet normal 0 0 1
    outer loop
      vertex -3.7082 -11.4127 8.35
      vertex -2 -13 8.35
      vertex -2.49494 -11.7378 8.35
    endloop
  endfacet
  facet normal 0 0 1
    outer loop
      vertex -6.02317 -11.6928 8.35
      vertex -3.7082 -11.4127 8.35
      vertex -4.88084 -10.9625 8.35
    endloop
  endfacet
  facet normal 0 0 1
    outer loop
      vertex -6.02317 -11.6928 8.35
      vertex -4.88084 -10.9625 8.35
      vertex -5.32733 -10.735 8.35
    endloop
  endfacet
  facet normal 0 0 1
    outer loop
      vertex -3.7082 -11.4127 8.35
      vertex -6.02317 -11.6928 8.35
      vertex -2 -13 8.35
    endloop
  endfacet
  facet normal 0 0 1
    outer loop
      vertex -20.5 -24.7 8.35
      vertex -2 -13 8.35
      vertex -6.02317 -11.6928 8.35
    endloop
  endfacet
  facet normal 0 0 1
    outer loop
      vertex -11.7457 -5.91933 8.35
      vertex -9.7082 -7.05342 8.35
      vertex -10.3923 -6 8.35
    endloop
  endfacet
  facet normal -0 0 1
    outer loop
      vertex -11.7457 -5.91933 8.35
      vertex -10.3923 -6 8.35
      vertex -10.6198 -5.55351 8.35
    endloop
  endfacet
  facet normal 0 0 1
    outer loop
      vertex -9.7082 -7.05342 8.35
      vertex -11.7457 -5.91933 8.35
      vertex -9.25924 -9.34165 8.35
    endloop
  endfacet
  facet normal 0 0 1
    outer loop
      vertex -2 -13 8.35
      vertex -20.5 -24.7 8.35
      vertex 20.5 -24.7 8.35
    endloop
  endfacet
  facet normal 0 0 1
    outer loop
      vertex -9.25924 -9.34165 8.35
      vertex -20.5 -24.7 8.35
      vertex -6.02317 -11.6928 8.35
    endloop
  endfacet
  facet normal 0 0 1
    outer loop
      vertex -11.7457 -5.91933 8.35
      vertex -20.5 -24.7 8.35
      vertex -9.25924 -9.34165 8.35
    endloop
  endfacet
  facet normal 0 0 1
    outer loop
      vertex -12.9818 -2.11511 8.35
      vertex -20.5 -24.7 8.35
      vertex -11.7457 -5.91933 8.35
    endloop
  endfacet
  facet normal 0 0 1
    outer loop
      vertex -20.5 -24.7 8.35
      vertex -12.9818 -2.11511 8.35
      vertex -20.5 24.7 8.35
    endloop
  endfacet
  facet normal -0 0 1
    outer loop
      vertex 11.9343 -1.25434 8.35
      vertex 12.9818 -2.11511 8.35
      vertex 12 0 8.35
    endloop
  endfacet
  facet normal 0 0 1
    outer loop
      vertex 12.9818 -2.11511 8.35
      vertex 11.9343 -1.25434 8.35
      vertex 11.8559 -1.74928 8.35
    endloop
  endfacet
  facet normal 0 0 1
    outer loop
      vertex 9.25924 9.34165 8.35
      vertex 8.91774 8.02957 8.35
      vertex 9.7082 7.05342 8.35
    endloop
  endfacet
  facet normal 0 -0 1
    outer loop
      vertex 8.91774 8.02957 8.35
      vertex 9.25924 9.34165 8.35
      vertex 8.5634 8.3839 8.35
    endloop
  endfacet
  facet normal 0 0 1
    outer loop
      vertex 2.49494 11.7378 8.35
      vertex 2 13 8.35
      vertex 2 11.8162 8.35
    endloop
  endfacet
  facet normal 0 0 1
    outer loop
      vertex -12.9818 -2.11511 8.35
      vertex -12 0 8.35
      vertex -12.9818 2.11511 8.35
    endloop
  endfacet
  facet normal 0 0 1
    outer loop
      vertex -12 0 8.35
      vertex -12.9818 -2.11511 8.35
      vertex -11.9343 -1.25434 8.35
    endloop
  endfacet
  facet normal 0 0 1
    outer loop
      vertex -11.9343 -1.25434 8.35
      vertex -12.9818 -2.11511 8.35
      vertex -11.8559 -1.74928 8.35
    endloop
  endfacet
  facet normal 0 0 -1
    outer loop
      vertex 8.91774 8.02957 -8.35
      vertex 9.25924 9.34165 -8.35
      vertex 9.7082 7.05342 -8.35
    endloop
  endfacet
  facet normal 0 0 -1
    outer loop
      vertex 9.25924 9.34165 -8.35
      vertex 8.91774 8.02957 -8.35
      vertex 8.5634 8.3839 -8.35
    endloop
  endfacet
  facet normal 0 0 -1
    outer loop
      vertex 12.9818 -2.11511 -8.35
      vertex 12 0 -8.35
      vertex 12.9818 2.11511 -8.35
    endloop
  endfacet
  facet normal 0 0 -1
    outer loop
      vertex 12.9818 -2.11511 -8.35
      vertex 11.9343 -1.25434 -8.35
      vertex 12 0 -8.35
    endloop
  endfacet
  facet normal 0 -0 -1
    outer loop
      vertex 11.9343 -1.25434 -8.35
      vertex 12.9818 -2.11511 -8.35
      vertex 11.8559 -1.74928 -8.35
    endloop
  endfacet
  facet normal 0 0 -1
    outer loop
      vertex 20.5 -24.7 -8.35
      vertex 12.9818 -2.11511 -8.35
      vertex 20.5 24.7 -8.35
    endloop
  endfacet
  facet normal 0 0 -1
    outer loop
      vertex 20.5 -24.7 -8.35
      vertex 11.7457 -5.91933 -8.35
      vertex 12.9818 -2.11511 -8.35
    endloop
  endfacet
  facet normal 0 0 -1
    outer loop
      vertex 9.25924 -9.34165 -8.35
      vertex 11.7457 -5.91933 -8.35
      vertex 20.5 -24.7 -8.35
    endloop
  endfacet
  facet normal -0 0 -1
    outer loop
      vertex 11.7457 -5.91933 -8.35
      vertex 10.3923 -6 -8.35
      vertex 10.6198 -5.55351 -8.35
    endloop
  endfacet
  facet normal 0 -0 -1
    outer loop
      vertex 9.7082 -7.05342 -8.35
      vertex 11.7457 -5.91933 -8.35
      vertex 9.25924 -9.34165 -8.35
    endloop
  endfacet
  facet normal 0 0 -1
    outer loop
      vertex 11.7457 -5.91933 -8.35
      vertex 9.7082 -7.05342 -8.35
      vertex 10.3923 -6 -8.35
    endloop
  endfacet
  facet normal 0 0 -1
    outer loop
      vertex 20.5 -24.7 -8.35
      vertex 6.02317 -11.6928 -8.35
      vertex 9.25924 -9.34165 -8.35
    endloop
  endfacet
  facet normal 0 0 -1
    outer loop
      vertex 6.02317 -11.6928 -8.35
      vertex 4.88084 -10.9625 -8.35
      vertex 5.32733 -10.735 -8.35
    endloop
  endfacet
  facet normal 0 0 -1
    outer loop
      vertex 2 -13 -8.35
      vertex 6.02317 -11.6928 -8.35
      vertex 20.5 -24.7 -8.35
    endloop
  endfacet
  facet normal 0 -0 -1
    outer loop
      vertex 3.7082 -11.4127 -8.35
      vertex 6.02317 -11.6928 -8.35
      vertex 2 -13 -8.35
    endloop
  endfacet
  facet normal 0 0 -1
    outer loop
      vertex 6.02317 -11.6928 -8.35
      vertex 3.7082 -11.4127 -8.35
      vertex 4.88084 -10.9625 -8.35
    endloop
  endfacet
  facet normal 0 0 -1
    outer loop
      vertex 3.7082 -11.4127 -8.35
      vertex 2 -13 -8.35
      vertex 2.49494 -11.7378 -8.35
    endloop
  endfacet
  facet normal 0 0 -1
    outer loop
      vertex 20.5 -24.7 -8.35
      vertex -2 -13 -8.35
      vertex 2 -13 -8.35
    endloop
  endfacet
  facet normal 0 0 -1
    outer loop
      vertex -2 -13 -8.35
      vertex -2.49494 -11.7378 -8.35
      vertex -2 -11.8162 -8.35
    endloop
  endfacet
  facet normal 0 0 -1
    outer loop
      vertex -2 -13 -8.35
      vertex -3.7082 -11.4127 -8.35
      vertex -2.49494 -11.7378 -8.35
    endloop
  endfacet
  facet normal 0 0 -1
    outer loop
      vertex -6.02317 -11.6928 -8.35
      vertex -3.7082 -11.4127 -8.35
      vertex -2 -13 -8.35
    endloop
  endfacet
  facet normal -0 0 -1
    outer loop
      vertex -3.7082 -11.4127 -8.35
      vertex -6.02317 -11.6928 -8.35
      vertex -4.88084 -10.9625 -8.35
    endloop
  endfacet
  facet normal -0 0 -1
    outer loop
      vertex -4.88084 -10.9625 -8.35
      vertex -6.02317 -11.6928 -8.35
      vertex -5.32733 -10.735 -8.35
    endloop
  endfacet
  facet normal 0 0 -1
    outer loop
      vertex -20.5 -24.7 -8.35
      vertex -2 -13 -8.35
      vertex 20.5 -24.7 -8.35
    endloop
  endfacet
  facet normal 0 0 -1
    outer loop
      vertex -11.7457 -5.91933 -8.35
      vertex -9.7082 -7.05342 -8.35
      vertex -9.25924 -9.34165 -8.35
    endloop
  endfacet
  facet normal 0 0 -1
    outer loop
      vertex -9.7082 -7.05342 -8.35
      vertex -11.7457 -5.91933 -8.35
      vertex -10.3923 -6 -8.35
    endloop
  endfacet
  facet normal 0 0 -1
    outer loop
      vertex -10.3923 -6 -8.35
      vertex -11.7457 -5.91933 -8.35
      vertex -10.6198 -5.55351 -8.35
    endloop
  endfacet
  facet normal -0 0 -1
    outer loop
      vertex -12.9818 -2.11511 -8.35
      vertex -20.5 -24.7 -8.35
      vertex -12.9818 2.11511 -8.35
    endloop
  endfacet
  facet normal -0 0 -1
    outer loop
      vertex -11.7457 -5.91933 -8.35
      vertex -20.5 -24.7 -8.35
      vertex -12.9818 -2.11511 -8.35
    endloop
  endfacet
  facet normal -0 0 -1
    outer loop
      vertex -9.25924 -9.34165 -8.35
      vertex -20.5 -24.7 -8.35
      vertex -11.7457 -5.91933 -8.35
    endloop
  endfacet
  facet normal -0 0 -1
    outer loop
      vertex -6.02317 -11.6928 -8.35
      vertex -20.5 -24.7 -8.35
      vertex -9.25924 -9.34165 -8.35
    endloop
  endfacet
  facet normal -0 0 -1
    outer loop
      vertex -2 -13 -8.35
      vertex -20.5 -24.7 -8.35
      vertex -6.02317 -11.6928 -8.35
    endloop
  endfacet
  facet normal 0 0 -1
    outer loop
      vertex 12.9818 2.11511 -8.35
      vertex 20.5 24.7 -8.35
      vertex 12.9818 -2.11511 -8.35
    endloop
  endfacet
  facet normal 0 0 -1
    outer loop
      vertex 11.7457 5.91933 -8.35
      vertex 20.5 24.7 -8.35
      vertex 12.9818 2.11511 -8.35
    endloop
  endfacet
  facet normal 0 0 -1
    outer loop
      vertex 10.3923 6 -8.35
      vertex 11.7457 5.91933 -8.35
      vertex 10.6198 5.55351 -8.35
    endloop
  endfacet
  facet normal 0 0 -1
    outer loop
      vertex 9.7082 7.05342 -8.35
      vertex 11.7457 5.91933 -8.35
      vertex 10.3923 6 -8.35
    endloop
  endfacet
  facet normal 0 0 -1
    outer loop
      vertex 11.7457 5.91933 -8.35
      vertex 9.7082 7.05342 -8.35
      vertex 9.25924 9.34165 -8.35
    endloop
  endfacet
  facet normal 0 0 -1
    outer loop
      vertex 11.7457 5.91933 -8.35
      vertex 9.25924 9.34165 -8.35
      vertex 20.5 24.7 -8.35
    endloop
  endfacet
  facet normal 0 0 -1
    outer loop
      vertex 6.02317 11.6928 -8.35
      vertex 20.5 24.7 -8.35
      vertex 9.25924 9.34165 -8.35
    endloop
  endfacet
  facet normal 0 0 -1
    outer loop
      vertex 4.88084 10.9625 -8.35
      vertex 6.02317 11.6928 -8.35
      vertex 5.32733 10.735 -8.35
    endloop
  endfacet
  facet normal 0 0 -1
    outer loop
      vertex 3.7082 11.4127 -8.35
      vertex 6.02317 11.6928 -8.35
      vertex 4.88084 10.9625 -8.35
    endloop
  endfacet
  facet normal -0 0 -1
    outer loop
      vertex 6.02317 11.6928 -8.35
      vertex 3.7082 11.4127 -8.35
      vertex 2 13 -8.35
    endloop
  endfacet
  facet normal 0 0 -1
    outer loop
      vertex 2 13 -8.35
      vertex 3.7082 11.4127 -8.35
      vertex 2.49494 11.7378 -8.35
    endloop
  endfacet
  facet normal 0 0 -1
    outer loop
      vertex 2 13 -8.35
      vertex 2.49494 11.7378 -8.35
      vertex 2 11.8162 -8.35
    endloop
  endfacet
  facet normal 0 0 -1
    outer loop
      vertex 6.02317 11.6928 -8.35
      vertex 2 13 -8.35
      vertex 1.5 24.7 -8.35
    endloop
  endfacet
  facet normal 0 0 -1
    outer loop
      vertex 1.5 24.7 -8.35
      vertex 2 13 -8.35
      vertex 1.5 13 -8.35
    endloop
  endfacet
  facet normal 0 0 -1
    outer loop
      vertex 6.02317 11.6928 -8.35
      vertex 1.5 24.7 -8.35
      vertex 20.5 24.7 -8.35
    endloop
  endfacet
  facet normal 0 0 -1
    outer loop
      vertex 11.9343 1.25434 -8.35
      vertex 12.9818 2.11511 -8.35
      vertex 12 0 -8.35
    endloop
  endfacet
  facet normal 0 0 -1
    outer loop
      vertex 12.9818 2.11511 -8.35
      vertex 11.9343 1.25434 -8.35
      vertex 11.8559 1.74928 -8.35
    endloop
  endfacet
  facet normal 0 0 -1
    outer loop
      vertex 9.25924 -9.34165 -8.35
      vertex 8.91774 -8.02957 -8.35
      vertex 9.7082 -7.05342 -8.35
    endloop
  endfacet
  facet normal 0 -0 -1
    outer loop
      vertex 8.91774 -8.02957 -8.35
      vertex 9.25924 -9.34165 -8.35
      vertex 8.5634 -8.3839 -8.35
    endloop
  endfacet
  facet normal 0 0 -1
    outer loop
      vertex 2.49494 -11.7378 -8.35
      vertex 2 -13 -8.35
      vertex 2 -11.8162 -8.35
    endloop
  endfacet
  facet normal 0 0 -1
    outer loop
      vertex -9.25924 -9.34165 -8.35
      vertex -8.91774 -8.02957 -8.35
      vertex -8.5634 -8.3839 -8.35
    endloop
  endfacet
  facet normal -0 0 -1
    outer loop
      vertex -8.91774 -8.02957 -8.35
      vertex -9.25924 -9.34165 -8.35
      vertex -9.7082 -7.05342 -8.35
    endloop
  endfacet
  facet normal -0 0 -1
    outer loop
      vertex -11.9343 -1.25434 -8.35
      vertex -12.9818 -2.11511 -8.35
      vertex -12 0 -8.35
    endloop
  endfacet
  facet normal 0 0 -1
    outer loop
      vertex -12.9818 -2.11511 -8.35
      vertex -11.9343 -1.25434 -8.35
      vertex -11.8559 -1.74928 -8.35
    endloop
  endfacet
  facet normal 0 0 -1
    outer loop
      vertex -8.91774 8.02957 -8.35
      vertex -9.25924 9.34165 -8.35
      vertex -8.5634 8.3839 -8.35
    endloop
  endfacet
  facet normal 0 -0 -1
    outer loop
      vertex -9.25924 9.34165 -8.35
      vertex -8.91774 8.02957 -8.35
      vertex -9.7082 7.05342 -8.35
    endloop
  endfacet
  facet normal -0 0 -1
    outer loop
      vertex -2 11.8162 -8.35
      vertex -2.49494 11.7378 -8.35
      vertex -2 13 -8.35
    endloop
  endfacet
  facet normal 0 0 -1
    outer loop
      vertex -2 13 -8.35
      vertex -1.5 24.7 -8.35
      vertex -1.5 13 -8.35
    endloop
  endfacet
  facet normal 0 0 -1
    outer loop
      vertex -3.7082 11.4127 -8.35
      vertex -2 13 -8.35
      vertex -2.49494 11.7378 -8.35
    endloop
  endfacet
  facet normal 0 0 -1
    outer loop
      vertex -2 13 -8.35
      vertex -3.7082 11.4127 -8.35
      vertex -6.02317 11.6928 -8.35
    endloop
  endfacet
  facet normal 0 0 -1
    outer loop
      vertex -6.02317 11.6928 -8.35
      vertex -3.7082 11.4127 -8.35
      vertex -4.88084 10.9625 -8.35
    endloop
  endfacet
  facet normal 0 0 -1
    outer loop
      vertex -6.02317 11.6928 -8.35
      vertex -4.88084 10.9625 -8.35
      vertex -5.32733 10.735 -8.35
    endloop
  endfacet
  facet normal -0 0 -1
    outer loop
      vertex -2 13 -8.35
      vertex -6.02317 11.6928 -8.35
      vertex -1.5 24.7 -8.35
    endloop
  endfacet
  facet normal 0 0 -1
    outer loop
      vertex -20.5 24.7 -8.35
      vertex -6.02317 11.6928 -8.35
      vertex -9.25924 9.34165 -8.35
    endloop
  endfacet
  facet normal 0 0 -1
    outer loop
      vertex -11.7457 5.91933 -8.35
      vertex -9.7082 7.05342 -8.35
      vertex -10.3923 6 -8.35
    endloop
  endfacet
  facet normal 0 0 -1
    outer loop
      vertex -11.7457 5.91933 -8.35
      vertex -10.3923 6 -8.35
      vertex -10.6198 5.55351 -8.35
    endloop
  endfacet
  facet normal -0 0 -1
    outer loop
      vertex -9.7082 7.05342 -8.35
      vertex -11.7457 5.91933 -8.35
      vertex -9.25924 9.34165 -8.35
    endloop
  endfacet
  facet normal 0 0 -1
    outer loop
      vertex -20.5 24.7 -8.35
      vertex -9.25924 9.34165 -8.35
      vertex -11.7457 5.91933 -8.35
    endloop
  endfacet
  facet normal 0 0 -1
    outer loop
      vertex -6.02317 11.6928 -8.35
      vertex -20.5 24.7 -8.35
      vertex -1.5 24.7 -8.35
    endloop
  endfacet
  facet normal 0 0 -1
    outer loop
      vertex -12.9818 2.11511 -8.35
      vertex -20.5 24.7 -8.35
      vertex -11.7457 5.91933 -8.35
    endloop
  endfacet
  facet normal 0 0 -1
    outer loop
      vertex -20.5 24.7 -8.35
      vertex -12.9818 2.11511 -8.35
      vertex -20.5 -24.7 -8.35
    endloop
  endfacet
  facet normal 0 0 -1
    outer loop
      vertex -12.9818 2.11511 -8.35
      vertex -12 0 -8.35
      vertex -12.9818 -2.11511 -8.35
    endloop
  endfacet
  facet normal 0 0 -1
    outer loop
      vertex -12 0 -8.35
      vertex -12.9818 2.11511 -8.35
      vertex -11.9343 1.25434 -8.35
    endloop
  endfacet
  facet normal 0 0 -1
    outer loop
      vertex -11.9343 1.25434 -8.35
      vertex -12.9818 2.11511 -8.35
      vertex -11.8559 1.74928 -8.35
    endloop
  endfacet
  facet normal -1 0 0
    outer loop
      vertex -20.5 24.7 -8.35
      vertex -20.5 19.7 0
      vertex -20.5 24.7 8.35
    endloop
  endfacet
  facet normal -1 0 0
    outer loop
      vertex -20.5 24.7 -8.35
      vertex -20.5 19.536 -1.03521
      vertex -20.5 19.7 0
    endloop
  endfacet
  facet normal -1 0 0
    outer loop
      vertex -20.5 24.7 -8.35
      vertex -20.5 19.0602 -1.96908
      vertex -20.5 19.536 -1.03521
    endloop
  endfacet
  facet normal -1 0 0
    outer loop
      vertex -20.5 24.7 -8.35
      vertex -20.5 18.3191 -2.71021
      vertex -20.5 19.0602 -1.96908
    endloop
  endfacet
  facet normal -1 0 0
    outer loop
      vertex -20.5 24.7 -8.35
      vertex -20.5 17.3852 -3.18604
      vertex -20.5 18.3191 -2.71021
    endloop
  endfacet
  facet normal -1 0 0
    outer loop
      vertex -20.5 24.7 -8.35
      vertex -20.5 16.35 -3.35
      vertex -20.5 17.3852 -3.18604
    endloop
  endfacet
  facet normal -1 0 0
    outer loop
      vertex -20.5 24.7 -8.35
      vertex -20.5 15.3148 -3.18604
      vertex -20.5 16.35 -3.35
    endloop
  endfacet
  facet normal -1 0 0
    outer loop
      vertex -20.5 -24.7 -8.35
      vertex -20.5 15.3148 -3.18604
      vertex -20.5 24.7 -8.35
    endloop
  endfacet
  facet normal -1 -0 0
    outer loop
      vertex -20.5 13.164 -1.03521
      vertex -20.5 -24.7 -8.35
      vertex -20.5 13 0
    endloop
  endfacet
  facet normal -1 -0 0
    outer loop
      vertex -20.5 13.6398 -1.96908
      vertex -20.5 -24.7 -8.35
      vertex -20.5 13.164 -1.03521
    endloop
  endfacet
  facet normal -1 -0 0
    outer loop
      vertex -20.5 14.3809 -2.71021
      vertex -20.5 -24.7 -8.35
      vertex -20.5 13.6398 -1.96908
    endloop
  endfacet
  facet normal -1 -0 0
    outer loop
      vertex -20.5 15.3148 -3.18604
      vertex -20.5 -24.7 -8.35
      vertex -20.5 14.3809 -2.71021
    endloop
  endfacet
  facet normal -1 0 0
    outer loop
      vertex -20.5 19.536 1.03521
      vertex -20.5 24.7 8.35
      vertex -20.5 19.7 0
    endloop
  endfacet
  facet normal -1 0 0
    outer loop
      vertex -20.5 19.0602 1.96908
      vertex -20.5 24.7 8.35
      vertex -20.5 19.536 1.03521
    endloop
  endfacet
  facet normal -1 0 0
    outer loop
      vertex -20.5 18.3191 2.71021
      vertex -20.5 24.7 8.35
      vertex -20.5 19.0602 1.96908
    endloop
  endfacet
  facet normal -1 0 0
    outer loop
      vertex -20.5 17.3852 3.18604
      vertex -20.5 24.7 8.35
      vertex -20.5 18.3191 2.71021
    endloop
  endfacet
  facet normal -1 0 0
    outer loop
      vertex -20.5 16.35 3.35
      vertex -20.5 24.7 8.35
      vertex -20.5 17.3852 3.18604
    endloop
  endfacet
  facet normal -1 0 0
    outer loop
      vertex -20.5 15.3148 3.18604
      vertex -20.5 24.7 8.35
      vertex -20.5 16.35 3.35
    endloop
  endfacet
  facet normal -1 0 0
    outer loop
      vertex -20.5 -24.7 8.35
      vertex -20.5 15.3148 3.18604
      vertex -20.5 14.3809 2.71021
    endloop
  endfacet
  facet normal -1 0 0
    outer loop
      vertex -20.5 -24.7 8.35
      vertex -20.5 13 0
      vertex -20.5 -24.7 -8.35
    endloop
  endfacet
  facet normal -1 0 0
    outer loop
      vertex -20.5 13 0
      vertex -20.5 -24.7 8.35
      vertex -20.5 13.164 1.03521
    endloop
  endfacet
  facet normal -1 0 0
    outer loop
      vertex -20.5 13.164 1.03521
      vertex -20.5 -24.7 8.35
      vertex -20.5 13.6398 1.96908
    endloop
  endfacet
  facet normal -1 0 0
    outer loop
      vertex -20.5 13.6398 1.96908
      vertex -20.5 -24.7 8.35
      vertex -20.5 14.3809 2.71021
    endloop
  endfacet
  facet normal -1 0 0
    outer loop
      vertex -20.5 15.3148 3.18604
      vertex -20.5 -24.7 8.35
      vertex -20.5 24.7 8.35
    endloop
  endfacet
  facet normal 0 1 -0
    outer loop
      vertex -1.5 24.7 -8.35
      vertex -20.5 24.7 8.35
      vertex -1.5 24.7 8.35
    endloop
  endfacet
  facet normal 0 1 0
    outer loop
      vertex -20.5 24.7 8.35
      vertex -1.5 24.7 -8.35
      vertex -20.5 24.7 -8.35
    endloop
  endfacet
  facet normal 0 1 -0
    outer loop
      vertex 20.5 24.7 -8.35
      vertex 1.5 24.7 8.35
      vertex 20.5 24.7 8.35
    endloop
  endfacet
  facet normal 0 1 0
    outer loop
      vertex 1.5 24.7 8.35
      vertex 20.5 24.7 -8.35
      vertex 1.5 24.7 -8.35
    endloop
  endfacet
  facet normal 0 -1 0
    outer loop
      vertex -20.5 -24.7 -8.35
      vertex 20.5 -24.7 8.35
      vertex -20.5 -24.7 8.35
    endloop
  endfacet
  facet normal 0 -1 -0
    outer loop
      vertex 20.5 -24.7 8.35
      vertex -20.5 -24.7 -8.35
      vertex 20.5 -24.7 -8.35
    endloop
  endfacet
endsolid OpenSCAD_Model
